<svg xmlns="http://www.w3.org/2000/svg" width="53.577" height="40.459" viewBox="0 0 53.577 40.459">
  <g id="search3" transform="translate(-277.423 -989.614)">
    <circle id="Ellipse_111" data-name="Ellipse 111" cx="20" cy="20" r="20" transform="translate(291 990)" fill="#52bd94"/>
    <g id="Group_12636" data-name="Group 12636" transform="translate(19.719 987.719)">
      <path id="Path" d="M5.78,4.524A.888.888,0,0,1,4.524,5.78L.26,1.516A.888.888,0,0,1,1.516.26Z" transform="translate(293.681 24.682)" fill="#fff"/>
      <path id="Oval" d="M7.3,14.59A7.3,7.3,0,1,1,14.59,7.3,7.3,7.3,0,0,1,7.3,14.59Zm0-13.214A5.919,5.919,0,1,0,13.214,7.3,5.926,5.926,0,0,0,7.3,1.376Z" transform="translate(282.281 13.281)" fill="#fff"/>
      <path id="Path-2" data-name="Path" d="M1.009,4.136A.5.5,0,0,1,0,4.136,4.136,4.136,0,0,1,4.136,0a.5.5,0,0,1,0,1.009A3.127,3.127,0,0,0,1.009,4.136Z" transform="translate(284.854 15.854)" fill="#fff"/>
    </g>
    <path id="Path_57883" data-name="Path 57883" d="M0,0S-11.577,9.553-11.577,19.478,0,39.7,0,39.7" transform="translate(289.5 990)" fill="none" stroke="#52bd94" stroke-width="1"/>
  </g>
</svg>
