<svg width="25" height="25" viewBox="0 0 25 25" fill="none" xmlns="http://www.w3.org/2000/svg">
<g clip-path="url(#clip0_317_1123)">
<path d="M12.621 0.0703186C10.2171 0.522662 8.30303 2.23907 7.57334 4.48829L7.56006 4.53438C7.42568 4.90547 7.34756 5.3336 7.34756 5.78047C7.34756 5.87266 7.35068 5.96485 7.35772 6.05547L7.35693 6.04297C7.34131 6.14454 7.33271 6.26172 7.33271 6.38047C7.33271 6.72891 7.40928 7.05938 7.546 7.35547L7.53975 7.34063C7.76709 7.99922 8.37646 8.46563 9.09678 8.47735H9.09834C10.2983 8.63907 11.4772 8.06954 12.7405 6.71563C13.1858 6.32032 13.489 5.77266 13.5679 5.15547L13.5694 5.14297C13.5327 4.71485 13.3265 4.34063 13.0179 4.08516L13.0155 4.08282C12.8733 4.01407 12.7054 3.97344 12.5288 3.97344C12.1968 3.97344 11.8983 4.11563 11.6897 4.34141L11.689 4.34219C11.4249 4.54688 11.2546 4.86329 11.2515 5.21876V5.21954C11.2515 5.73907 11.8194 6.29376 12.2054 6.1461C12.353 6.09063 12.3718 6.09688 12.3718 6.23672C12.3116 6.59922 12.1382 6.91329 11.8882 7.14844L11.8874 7.14922C11.4788 7.39844 10.9851 7.5461 10.4569 7.5461C10.0335 7.5461 9.63272 7.45157 9.27412 7.28204L9.29131 7.28907C8.35771 6.82579 8.06318 5.56876 8.5124 3.9836C8.88584 2.22657 10.4241 0.92735 12.2663 0.92735C12.3163 0.92735 12.3663 0.928131 12.4155 0.930475H12.4085C12.4897 0.922662 12.5835 0.917975 12.678 0.917975C13.878 0.917975 14.9077 1.64454 15.3515 2.68126L15.3585 2.70001C16.2921 4.98829 15.6812 7.42344 13.5413 9.98594C13.0522 10.6031 12.5046 11.1414 11.8968 11.6047L11.8749 11.6211C11.4882 11.4414 11.1655 11.2633 10.8569 11.0664L10.8921 11.0875C9.46162 10.0891 7.69834 9.47266 5.79522 9.4211H5.78271C5.721 9.41797 5.64834 9.41641 5.5749 9.41641C5.11084 9.41641 4.6624 9.48751 4.24131 9.61876L4.27256 9.61016C3.03271 9.95547 2.01787 10.7523 1.39678 11.8086L1.38428 11.8313C1.29756 12.0203 1.24756 12.2414 1.24756 12.4742C1.24756 12.5117 1.24912 12.5492 1.25146 12.5867V12.582C1.24365 12.6297 1.23975 12.6844 1.23975 12.7398C1.23975 12.9859 1.32334 13.2117 1.46396 13.3922L1.4624 13.3899C1.81396 13.8266 2.29131 14.1492 2.84053 14.3023L2.85928 14.307C3.33115 14.4125 3.87334 14.4734 4.42959 14.4734C5.05303 14.4734 5.6585 14.3977 6.23818 14.2539L6.18662 14.2649C7.52256 13.9867 8.67568 13.6422 9.78662 13.2125L9.63193 13.2649L10.4249 12.9422L11.0851 13.2516C11.339 13.3508 11.5562 13.4633 11.7601 13.5938L11.7452 13.5844C11.4515 13.8094 11.1147 14.0406 10.7671 14.2555L10.714 14.2859C10.1522 14.6508 9.45068 15.1141 9.15537 15.318C8.86006 15.5219 8.06787 16.0055 7.39365 16.4016C6.71943 16.7977 5.83506 17.343 5.42803 17.6164C4.66318 18.1359 3.34443 19.3367 3.53975 19.343C4.52725 18.8586 5.37646 18.3188 6.15928 17.6984L6.12959 17.7211C8.27803 16.2125 9.45693 15.757 11.2522 15.757C11.3522 15.7477 11.4687 15.743 11.5866 15.743C12.6632 15.743 13.6366 16.1805 14.3405 16.8875C15.0983 17.6359 15.5679 18.675 15.5679 19.8242C15.5679 19.9024 15.5655 19.9797 15.5616 20.057L15.5624 20.0461C15.5655 20.1063 15.5671 20.1758 15.5671 20.2469C15.5671 21.3805 15.1421 22.4149 14.4437 23.1992L14.4476 23.1945C13.8593 23.8211 13.0257 24.2109 12.1007 24.2109C11.9851 24.2109 11.8718 24.2047 11.7593 24.193L11.7733 24.1945C11.7062 24.2 11.628 24.2031 11.5499 24.2031C10.9937 24.2031 10.4741 24.0445 10.0351 23.7703L10.0468 23.7774C9.43975 23.3484 9.04834 22.65 9.04834 21.8602C9.04834 21.7914 9.05147 21.7234 9.05693 21.6563L9.05615 21.6649C9.05146 21.6078 9.04834 21.5414 9.04834 21.4742C9.04834 20.7024 9.41865 20.0172 9.99053 19.5852L9.99678 19.5805C10.2585 19.4352 10.5718 19.3492 10.9038 19.3492C11.1116 19.3492 11.3116 19.3828 11.4983 19.4445L11.4851 19.4406L11.7452 19.5531L11.5694 19.8133C11.4593 19.9695 11.3937 20.1633 11.3937 20.3727C11.3937 20.3781 11.3937 20.3836 11.3937 20.3899V20.3891C11.3921 20.4063 11.3913 20.4266 11.3913 20.4469C11.3913 20.6641 11.4999 20.8555 11.6655 20.9711L11.6679 20.9727C11.7851 21.1414 11.9788 21.2516 12.1976 21.2516C12.2265 21.2516 12.2546 21.25 12.2819 21.2461H12.2788C12.7788 21.2086 13.214 20.9594 13.4999 20.5891L13.503 20.5852C13.5796 20.4024 13.6233 20.1891 13.6233 19.9664C13.6233 19.5258 13.4507 19.1258 13.1687 18.8297L13.1694 18.8305C12.8538 18.6203 12.4655 18.4953 12.0483 18.4953C11.803 18.4953 11.5687 18.5383 11.3507 18.618L11.3647 18.6133C10.2351 19.0094 9.27021 19.6266 8.47959 20.4172C8.02803 20.9281 7.75225 21.6039 7.75225 22.3445C7.75225 23.4211 8.33506 24.3609 9.20225 24.8664L9.21631 24.8742C9.58506 25 10.0101 25.0727 10.4522 25.0727C10.9015 25.0727 11.3335 24.9977 11.7358 24.8594L11.7077 24.868C14.6483 24.1313 16.3405 22.643 16.8101 20.368C16.8968 20.0297 16.946 19.6422 16.946 19.2422C16.946 18.4953 16.7726 17.7891 16.4647 17.1609L16.4772 17.1891C16.1304 16.5313 15.6522 15.9852 15.0741 15.5703L15.0601 15.5609C14.2429 15.1203 13.271 14.8609 12.239 14.8609C11.6077 14.8609 10.9991 14.9578 10.428 15.1375L10.471 15.1258C10.3163 15.1789 10.1351 15.2188 9.94834 15.2375L9.93818 15.2383C9.92412 15.2313 10.4226 14.8664 11.0397 14.4383C12.1413 13.6664 12.1694 13.6524 12.3593 13.7508C13.3593 14.1399 14.5171 14.3992 15.7241 14.4727L15.7569 14.4742C18.2976 14.6141 21.2452 13.6406 22.7335 12.1508C23.2327 11.7156 23.6015 11.1422 23.7804 10.4906L23.7858 10.4664C23.8694 10.2555 23.9187 10.0117 23.9187 9.75626C23.9187 9.06954 23.5679 8.46563 23.0351 8.11251L23.028 8.10782C22.778 7.97422 22.6562 7.96016 22.1015 7.98829C20.6351 8.07188 18.4515 9.08985 14.7108 11.4625L13.2155 12.4164L12.8819 12.2547C12.678 12.1625 12.503 12.0586 12.3405 11.9398L12.3491 11.9453L12.1601 11.7977L12.8202 11.3063C13.7569 10.582 14.5679 9.76173 15.2601 8.84688L15.2835 8.81407C15.9257 7.87422 16.4765 6.7961 16.8819 5.64922L16.9124 5.55079C17.0593 5.03907 17.1429 4.45079 17.1429 3.84376C17.1429 3.46719 17.1108 3.09766 17.0483 2.73829L17.0538 2.77657C16.7226 1.19219 15.3421 0.0171936 13.6858 0.00547485H13.6843C13.6093 0.0015686 13.5218 -0.0015564 13.4343 -0.0015564C13.1483 -0.0015564 12.8687 0.0242249 12.5968 0.0726624L12.6257 0.0687561L12.621 0.0703186ZM12.8335 4.63907C13.2757 5.07422 12.8054 5.83204 12.2577 5.57266C12.0483 5.48126 11.9046 5.27579 11.9046 5.03672C11.9046 5.00079 11.9077 4.96485 11.914 4.93047L11.9132 4.93438C11.9499 4.6711 12.1733 4.4711 12.4437 4.4711C12.5976 4.4711 12.7358 4.53594 12.8335 4.63907ZM21.7046 9.30001C22.2882 9.59532 22.371 10.4586 21.9077 11.4266C21.4554 12.3453 20.5976 13.0047 19.5749 13.1742L19.5562 13.1766C18.9577 13.3008 18.2702 13.3719 17.5663 13.3719C17.0772 13.3719 16.596 13.3375 16.1249 13.2711L16.1788 13.2774C15.3874 13.1633 14.6772 12.9789 14.0007 12.7274L14.0733 12.7508C13.7929 12.5969 19.6468 9.33985 20.5163 9.16719C20.6319 9.14297 20.7655 9.12891 20.9015 9.12891C21.1913 9.12891 21.4663 9.19141 21.7147 9.30469L21.7022 9.30001H21.7046ZM6.05772 10.8156C6.85459 10.9344 7.57334 11.1758 8.22803 11.5211L8.19131 11.5031C8.75459 11.7797 9.23975 12.1078 9.67412 12.4922L9.66709 12.4859C9.63193 12.5 9.29521 12.6195 8.92256 12.7359C7.83896 13.1188 6.58897 13.3399 5.28662 13.3399C4.86865 13.3399 4.45537 13.3172 4.04912 13.2727L4.09912 13.2774C3.08193 13.0602 2.73115 12.6883 2.72334 11.8172C2.72334 11.375 2.7374 11.3258 2.94053 11.1219C3.096 10.9797 3.2835 10.8711 3.49209 10.8086L3.50225 10.8063C3.87646 10.75 4.3085 10.718 4.74756 10.718C5.20928 10.718 5.6624 10.7531 6.10537 10.8219L6.05615 10.8156H6.05772ZM12.8905 19.7719C13.0038 19.8516 13.0772 19.982 13.0772 20.1297C13.0772 20.1508 13.0757 20.1711 13.0733 20.1906V20.1883C13.0733 20.7078 12.5687 20.9883 12.2101 20.6656C12.0655 20.5703 11.9718 20.4086 11.9718 20.225C11.9718 20.0789 12.0312 19.9477 12.1265 19.8516C12.2171 19.7156 12.3702 19.6281 12.5429 19.6281C12.6796 19.6281 12.8038 19.6828 12.8937 19.7719H12.8905Z" fill="#191A15"/>
</g>
<defs>
<clipPath id="clip0_317_1123">
<rect width="25" height="25" fill="white"/>
</clipPath>
</defs>
</svg>
