<svg width="63" height="69" viewBox="0 0 63 69" fill="none" xmlns="http://www.w3.org/2000/svg">
<path d="M31.3849 0.196758C24.7559 1.43505 19.4777 6.13371 17.4655 12.291L17.4289 12.4171C17.0583 13.433 16.8429 14.605 16.8429 15.8283C16.8429 16.0807 16.8515 16.333 16.8709 16.5811L16.8687 16.5469C16.8257 16.8249 16.802 17.1457 16.802 17.4708C16.802 18.4247 17.0131 19.3293 17.3901 20.1399L17.3729 20.0992C17.9998 21.9021 19.6802 23.1789 21.6665 23.211H21.6708C24.98 23.6537 28.2309 22.0946 31.7145 18.3883C32.9425 17.3061 33.7784 15.8069 33.996 14.1174L34.0003 14.0832C33.8991 12.9112 33.3303 11.8867 32.4793 11.1874L32.4729 11.181C32.0808 10.9928 31.6176 10.8816 31.1307 10.8816C30.2151 10.8816 29.3921 11.2708 28.8169 11.8889L28.8147 11.891C28.0866 12.4514 27.6169 13.3175 27.6083 14.2906V14.2927C27.6083 15.715 29.1745 17.2334 30.2388 16.8292C30.646 16.6774 30.6977 16.6945 30.6977 17.0773C30.5318 18.0696 30.0535 18.9294 29.3641 19.5731L29.362 19.5753C28.2352 20.2575 26.8737 20.6617 25.4173 20.6617C24.2496 20.6617 23.1444 20.4029 22.1556 19.9388L22.203 19.9581C19.6285 18.6899 18.8163 15.2487 20.0551 10.9094C21.0849 6.09949 25.3268 2.54288 30.4068 2.54288C30.5447 2.54288 30.6826 2.54502 30.8183 2.55144H30.7989C31.023 2.53005 31.2815 2.51722 31.5422 2.51722C34.8513 2.51722 37.6908 4.50618 38.9144 7.3442L38.9338 7.39553C41.5083 13.6597 39.8236 20.3259 33.9228 27.3408C32.5741 29.0303 31.0639 30.5039 29.3878 31.7721L29.3275 31.817C28.2611 31.3251 27.3713 30.8375 26.5203 30.2986L26.6173 30.3563C22.6726 27.6231 17.8102 25.9357 12.5622 25.7945H12.5277C12.3575 25.786 12.1571 25.7817 11.9546 25.7817C10.6749 25.7817 9.43831 25.9763 8.2771 26.3356L8.36328 26.3121C4.94429 27.2574 2.14576 29.4388 0.433029 32.3303L0.398559 32.3923C0.159423 32.9099 0.0215437 33.5151 0.0215437 34.1525C0.0215437 34.2551 0.0258524 34.3578 0.0323156 34.4604V34.4476C0.0107718 34.5781 0 34.7278 0 34.8796C0 35.5533 0.230518 36.1714 0.618305 36.6654L0.613996 36.659C1.58346 37.8545 2.89979 38.7378 4.41431 39.157L4.46602 39.1698C5.76726 39.4585 7.26239 39.6253 8.79631 39.6253C10.5155 39.6253 12.1851 39.4179 13.7837 39.0244L13.6415 39.0543C17.3255 38.2929 20.5053 37.3498 23.5688 36.1735L23.1423 36.3168L25.329 35.4335L27.1494 36.2804C27.8496 36.5521 28.4485 36.86 29.0108 37.2172L28.9699 37.1915C28.1598 37.8075 27.2313 38.4405 26.2726 39.0286L26.1261 39.112C24.5771 40.1108 22.6425 41.379 21.8281 41.9372C21.0138 42.4954 18.8292 43.8193 16.97 44.9036C15.1108 45.9879 12.672 47.4807 11.5496 48.2292C9.44046 49.6514 5.80388 52.9386 6.34248 52.9557C9.0656 51.6297 11.4074 50.1519 13.5661 48.4538L13.4842 48.5158C19.4087 44.386 22.6597 43.1392 27.6104 43.1392C27.8862 43.1135 28.2072 43.1007 28.5325 43.1007C31.5012 43.1007 34.1856 44.2983 36.1267 46.2338C38.2164 48.2827 39.5112 51.1271 39.5112 54.2731C39.5112 54.487 39.5047 54.6987 39.494 54.9104L39.4961 54.8805C39.5047 55.0452 39.5091 55.2355 39.5091 55.4301C39.5091 58.5333 38.3371 61.3649 36.4111 63.5122L36.4218 63.4993C34.7996 65.2145 32.5009 66.2817 29.9501 66.2817C29.6312 66.2817 29.3189 66.2646 29.0086 66.2326L29.0474 66.2368C28.8621 66.2518 28.6467 66.2604 28.4313 66.2604C26.8974 66.2604 25.4647 65.8262 24.2539 65.0755L24.2862 65.0948C22.6123 63.9206 21.533 62.0087 21.533 59.8465C21.533 59.6583 21.5416 59.4722 21.5567 59.2883L21.5545 59.3118C21.5416 59.1557 21.533 58.9739 21.533 58.79C21.533 56.677 22.5541 54.8013 24.1311 53.6187L24.1484 53.6058C24.8701 53.208 25.734 52.9728 26.6496 52.9728C27.2227 52.9728 27.7742 53.0647 28.2891 53.2337L28.2525 53.223L28.9699 53.531L28.4851 54.2432C28.1814 54.6709 28.0004 55.2013 28.0004 55.7744C28.0004 55.7894 28.0004 55.8044 28.0004 55.8215V55.8194C27.9961 55.8664 27.9939 55.922 27.9939 55.9776C27.9939 56.5722 28.2934 57.0961 28.7501 57.4127L28.7566 57.4169C29.0797 57.8789 29.614 58.1805 30.2172 58.1805C30.2969 58.1805 30.3745 58.1762 30.4499 58.1655H30.4413C31.8201 58.0628 33.0201 57.3806 33.8086 56.3669L33.8172 56.3562C34.0283 55.8557 34.149 55.2719 34.149 54.6623C34.149 53.4561 33.6729 52.3611 32.8951 51.5506L32.8973 51.5527C32.0269 50.9774 30.9562 50.6352 29.8058 50.6352C29.1293 50.6352 28.483 50.7528 27.8819 50.971L27.9207 50.9582C24.8055 52.0425 22.1448 53.732 19.9646 55.8964C18.7193 57.295 17.9589 59.145 17.9589 61.1725C17.9589 64.1195 19.566 66.6924 21.9574 68.0761L21.9962 68.0975C23.013 68.4418 24.185 68.6407 25.4044 68.6407C26.6431 68.6407 27.8345 68.4354 28.944 68.0568L28.8664 68.0804C36.9755 66.0636 41.6419 61.9894 42.9367 55.7616C43.1758 54.8356 43.3115 53.7748 43.3115 52.6798C43.3115 50.6352 42.8332 48.7019 41.9844 46.9824L42.0189 47.0594C41.0624 45.2586 39.7439 43.7637 38.1496 42.628L38.1109 42.6024C35.8574 41.3961 33.1773 40.6861 30.3314 40.6861C28.5907 40.6861 26.9124 40.9513 25.3376 41.4432L25.4561 41.4111C25.0295 41.5565 24.5297 41.6656 24.0148 41.7169L23.9868 41.7191C23.948 41.6998 25.3225 40.7011 27.0245 39.5291C30.0621 37.4161 30.1397 37.3776 30.6632 37.6471C33.4208 38.7121 36.6136 39.4222 39.9421 39.6232L40.0326 39.6275C47.0386 40.0103 55.167 37.3455 59.2711 33.2671C60.6478 32.0758 61.6646 30.506 62.158 28.7224L62.1731 28.6561C62.4036 28.0786 62.5393 27.4114 62.5393 26.712C62.5393 24.8321 61.572 23.1789 60.1027 22.2123L60.0833 22.1994C59.3939 21.8337 59.0578 21.7952 57.5282 21.8722C53.4845 22.101 47.463 24.8877 37.1479 31.3829L33.0244 33.9942L32.1045 33.5515C31.5422 33.2991 31.0596 33.0147 30.6115 32.6896L30.6352 32.7046L30.1138 32.3004L31.9343 30.9551C34.5174 28.9726 36.7536 26.727 38.6624 24.2226L38.727 24.1328C40.4979 21.56 42.0167 18.6086 43.1349 15.469L43.2189 15.1995C43.6239 13.7987 43.8544 12.1883 43.8544 10.5265C43.8544 9.49571 43.7661 8.48411 43.5937 7.50033L43.6088 7.60512C42.6954 3.26789 38.8886 0.0513281 34.3213 0.0192481H34.317C34.1102 0.00855469 33.8689 0 33.6276 0C32.8391 0 32.0678 0.0705762 31.3181 0.203174L31.3978 0.192481L31.3849 0.196758ZM31.9709 12.7037C33.1903 13.895 31.8933 15.9695 30.3831 15.2594C29.8058 15.0092 29.4093 14.4467 29.4093 13.7923C29.4093 13.6939 29.418 13.5955 29.4352 13.5014L29.433 13.5121C29.5343 12.7914 30.1505 12.2439 30.8959 12.2439C31.3203 12.2439 31.7016 12.4214 31.9709 12.7037ZM56.4338 25.463C58.0431 26.2715 58.2715 28.6347 56.9939 31.2845C55.7466 33.7996 53.3811 35.6046 50.561 36.0687L50.5093 36.0751C48.859 36.4152 46.9632 36.6098 45.0221 36.6098C43.6735 36.6098 42.3464 36.5157 41.0473 36.3339L41.1959 36.351C39.0135 36.0388 37.0552 35.534 35.1895 34.8454L35.3899 34.9096C34.6165 34.4882 50.7592 25.5721 53.157 25.0995C53.4759 25.0332 53.8442 24.9947 54.2191 24.9947C55.0184 24.9947 55.7767 25.1658 56.4618 25.4759L56.4273 25.463H56.4338ZM13.286 29.6121C15.4835 29.9371 17.4655 30.598 19.2709 31.5433L19.1696 31.4941C20.7229 32.2512 22.0608 33.1494 23.2586 34.2017L23.2392 34.1845C23.1423 34.223 22.2137 34.5503 21.1861 34.8689C18.198 35.9169 14.751 36.5221 11.1597 36.5221C10.0071 36.5221 8.8674 36.4601 7.74713 36.3382L7.88501 36.351C5.08001 35.7565 4.1127 34.7385 4.09115 32.3538C4.09115 31.1434 4.12993 31.0086 4.69007 30.4504C5.11879 30.0612 5.63584 29.7639 6.21106 29.5928L6.23906 29.5864C7.27101 29.4324 8.46238 29.3447 9.67314 29.3447C10.9464 29.3447 12.1959 29.441 13.4174 29.6292L13.2817 29.6121H13.286ZM32.1282 54.1298C32.4406 54.348 32.6431 54.7051 32.6431 55.1093C32.6431 55.1671 32.6388 55.2227 32.6323 55.2761V55.2697C32.6323 56.6919 31.2406 57.4597 30.2517 56.5764C29.8531 56.3155 29.5946 55.8728 29.5946 55.3702C29.5946 54.9703 29.7584 54.611 30.0212 54.3479C30.2711 53.9758 30.6934 53.7363 31.1695 53.7363C31.5465 53.7363 31.889 53.886 32.1368 54.1298H32.1282Z" fill="#54BD95"/>
</svg>
