<svg width="93" height="102" viewBox="0 0 93 102" fill="none" xmlns="http://www.w3.org/2000/svg">
<path d="M46.383 0.290784C36.5862 2.12083 28.7856 9.06487 25.8119 18.1645L25.7577 18.351C25.2101 19.8523 24.8917 21.5844 24.8917 23.3923C24.8917 23.7653 24.9044 24.1382 24.9331 24.5049L24.9299 24.4543C24.8662 24.8652 24.8312 25.3393 24.8312 25.8197C24.8312 27.2294 25.1432 28.5663 25.7004 29.7642L25.6749 29.7042C26.6015 32.3687 29.0849 34.2556 32.0205 34.303H32.0268C36.9173 34.9573 41.7218 32.6531 46.8701 27.1756C48.685 25.5763 49.9203 23.3607 50.2419 20.8637L50.2483 20.8132C50.0986 19.0811 49.2581 17.5671 48.0004 16.5336L47.9909 16.5241C47.4114 16.246 46.7269 16.0816 46.0073 16.0816C44.6542 16.0816 43.4379 16.6569 42.5878 17.5703L42.5846 17.5735C41.5085 18.4016 40.8144 19.6816 40.8016 21.1198V21.1229C40.8016 23.2248 43.1163 25.4689 44.6892 24.8715C45.2909 24.6471 45.3673 24.6724 45.3673 25.2381C45.1222 26.7047 44.4154 27.9753 43.3965 28.9267L43.3933 28.9298C41.7282 29.9381 39.7159 30.5355 37.5636 30.5355C35.8379 30.5355 34.2046 30.153 32.7432 29.4671L32.8132 29.4956C29.0085 27.6213 27.8082 22.5357 29.6389 16.1227C31.1608 9.0143 37.4299 3.75806 44.9375 3.75806C45.1413 3.75806 45.3451 3.76123 45.5456 3.77071H45.517C45.8481 3.7391 46.2302 3.72014 46.6154 3.72014C51.5059 3.72014 55.7023 6.65958 57.5107 10.8538L57.5394 10.9297C61.3441 20.1873 58.8543 30.0392 50.1336 40.4063C48.1405 42.9033 45.9086 45.081 43.4315 46.9553L43.3424 47.0216C41.7664 46.2947 40.4514 45.574 39.1938 44.7775L39.337 44.8629C33.5073 40.8235 26.3213 38.3297 18.5653 38.1211H18.5144C18.2628 38.1085 17.9667 38.1022 17.6674 38.1022C15.7762 38.1022 13.9487 38.3898 12.2325 38.9208L12.3599 38.886C7.30704 40.283 3.17116 43.5069 0.639963 47.7802L0.589021 47.8719C0.235608 48.6367 0.0318389 49.5312 0.0318389 50.4731C0.0318389 50.6248 0.0382067 50.7765 0.0477584 50.9283V50.9093C0.0159194 51.1021 0 51.3233 0 51.5477C0 52.5434 0.340677 53.4568 0.913778 54.1869L0.90741 54.1774C2.34016 55.9443 4.28552 57.2496 6.5238 57.8691L6.60022 57.8881C8.52329 58.3148 10.7329 58.5613 12.9999 58.5613C15.5406 58.5613 18.0081 58.2547 20.3706 57.6732L20.1604 57.7174C25.6049 56.5922 30.3043 55.1984 34.8318 53.46L34.2014 53.6717L37.4331 52.3664L40.1235 53.618C41.1582 54.0194 42.0434 54.4746 42.8744 55.0024L42.8139 54.9645C41.6167 55.8747 40.2445 56.8103 38.8276 57.6795L38.6111 57.8028C36.3219 59.2788 33.4628 61.1531 32.2592 61.978C31.0557 62.803 27.8273 64.7594 25.0796 66.3619C22.3319 67.9644 18.7277 70.1706 17.0689 71.2768C13.9518 73.3787 8.57742 78.2366 9.37339 78.2619C13.3978 76.3023 16.8587 74.1183 20.049 71.6087L19.928 71.7003C28.6837 65.597 33.4882 63.7544 40.8048 63.7544C41.2124 63.7164 41.6868 63.6975 42.1675 63.6975C46.5549 63.6975 50.5221 65.4674 53.3908 68.3279C56.4791 71.3558 58.3927 75.5595 58.3927 80.2089C58.3927 80.525 58.3831 80.8379 58.3672 81.1508L58.3704 81.1066C58.3831 81.3499 58.3895 81.6312 58.3895 81.9189C58.3895 86.505 56.6574 90.6898 53.811 93.8631L53.827 93.8441C51.4295 96.379 48.0323 97.9562 44.2625 97.9562C43.7913 97.9562 43.3297 97.9309 42.8712 97.8835L42.9285 97.8898C42.6547 97.912 42.3363 97.9246 42.0179 97.9246C39.751 97.9246 37.6337 97.283 35.8443 96.1736L35.8921 96.202C33.4182 94.4668 31.823 91.6412 31.823 88.4457C31.823 88.1675 31.8358 87.8926 31.8581 87.6207L31.8549 87.6555C31.8358 87.4248 31.823 87.1561 31.823 86.8843C31.823 83.7615 33.3322 80.9896 35.6628 79.2417L35.6883 79.2228C36.7549 78.6349 38.0316 78.2872 39.3848 78.2872C40.2317 78.2872 41.0468 78.4231 41.8078 78.6728L41.7536 78.657L42.8139 79.1122L42.0975 80.1647C41.6486 80.7968 41.3811 81.5807 41.3811 82.4277C41.3811 82.4498 41.3811 82.472 41.3811 82.4973V82.4941C41.3747 82.5636 41.3716 82.6458 41.3716 82.728C41.3716 83.6067 41.8141 84.381 42.4891 84.8488L42.4987 84.8551C42.9762 85.5378 43.7658 85.9835 44.6573 85.9835C44.7751 85.9835 44.8898 85.9772 45.0012 85.9614H44.9885C47.0262 85.8097 48.7996 84.8014 49.9649 83.3032L49.9776 83.2874C50.2897 82.5478 50.4679 81.685 50.4679 80.7842C50.4679 79.0015 49.7643 77.3833 48.6149 76.1854L48.6181 76.1885C47.3318 75.3383 45.7494 74.8326 44.0492 74.8326C43.0495 74.8326 42.0943 75.0064 41.206 75.3288L41.2633 75.3098C36.6594 76.9123 32.7273 79.4093 29.5052 82.6079C27.6649 84.675 26.541 87.409 26.541 90.4053C26.541 94.7608 28.9162 98.5631 32.4503 100.608L32.5076 100.64C34.0104 101.149 35.7424 101.442 37.5445 101.442C39.3753 101.442 41.1359 101.139 42.7757 100.58L42.661 100.614C54.6452 97.6338 61.5415 91.6127 63.4551 82.4088C63.8085 81.0402 64.0091 79.4725 64.0091 77.8542C64.0091 74.8326 63.3022 71.9753 62.0478 69.4341L62.0987 69.5479C60.6851 66.8866 58.7365 64.6773 56.3804 62.9989L56.3231 62.961C52.9928 61.1784 49.032 60.129 44.8261 60.129C42.2535 60.129 39.7732 60.521 37.4458 61.2479L37.6209 61.2005C36.9905 61.4154 36.2518 61.5766 35.4909 61.6525L35.4495 61.6556C35.3922 61.6272 37.4235 60.1512 39.9388 58.4191C44.4281 55.2963 44.5427 55.2394 45.3164 55.6377C49.3918 57.2117 54.1103 58.2611 59.0294 58.5582L59.1632 58.5645C69.5172 59.1303 81.53 55.192 87.5954 49.1646C89.6299 47.4041 91.1327 45.0841 91.8618 42.4481L91.8841 42.3501C92.2248 41.4967 92.4253 40.5106 92.4253 39.4771C92.4253 36.6988 90.9958 34.2556 88.8244 32.827L88.7957 32.808C87.7769 32.2675 87.2802 32.2106 85.0196 32.3244C79.0434 32.6626 70.1444 36.781 54.8999 46.38L48.806 50.2392L47.4464 49.585C46.6154 49.212 45.9022 48.7916 45.24 48.3112L45.275 48.3333L44.5045 47.736L47.1949 45.7479C51.0124 42.8179 54.3173 39.4992 57.1382 35.798L57.2337 35.6653C59.8509 31.8629 62.0955 27.5012 63.748 22.8613L63.8722 22.463C64.4707 20.3928 64.8114 18.0128 64.8114 15.5569C64.8114 14.0335 64.6809 12.5385 64.4262 11.0846L64.4484 11.2394C63.0985 4.82954 57.4725 0.0758566 50.7227 0.0284462H50.7163C50.4106 0.0126428 50.054 0 49.6974 0C48.5321 0 47.3923 0.104303 46.2843 0.300266L46.4021 0.284462L46.383 0.290784ZM47.249 18.7745C49.0511 20.535 47.1344 23.6009 44.9025 22.5515C44.0492 22.1817 43.4634 21.3505 43.4634 20.3833C43.4634 20.2379 43.4761 20.0925 43.5016 19.9535L43.4984 19.9693C43.648 18.9041 44.5586 18.095 45.6603 18.095C46.2875 18.095 46.851 18.3573 47.249 18.7745ZM83.4022 37.6312C85.7805 38.826 86.118 42.3185 84.23 46.2346C82.3865 49.9516 78.8906 52.6192 74.7229 53.3051L74.6465 53.3146C72.2076 53.8171 69.4058 54.1047 66.5371 54.1047C64.544 54.1047 62.5827 53.9657 60.6628 53.697L60.8825 53.7223C57.6572 53.2608 54.763 52.5149 52.0058 51.4972L52.3019 51.592C51.1589 50.9693 75.0158 37.7924 78.5595 37.0939C79.0307 36.9959 79.5751 36.939 80.1291 36.939C81.3104 36.939 82.4311 37.1919 83.4436 37.6502L83.3926 37.6312H83.4022ZM19.6351 43.763C22.8827 44.2434 25.8119 45.22 28.48 46.6171L28.3303 46.5444C30.6259 47.6633 32.6031 48.9907 34.3734 50.5458L34.3447 50.5205C34.2014 50.5774 32.8292 51.061 31.3104 51.5319C26.8944 53.0807 21.8001 53.9752 16.4926 53.9752C14.7892 53.9752 13.1049 53.8835 11.4493 53.7033L11.6531 53.7223C7.50763 52.8436 6.07806 51.3391 6.04622 47.815C6.04622 46.026 6.10353 45.8269 6.93134 45.002C7.56494 44.4267 8.32907 43.9874 9.17917 43.7345L9.22056 43.725C10.7457 43.4975 12.5063 43.3679 14.2957 43.3679C16.1774 43.3679 18.024 43.5101 19.8293 43.7882L19.6287 43.763H19.6351ZM47.4815 79.9972C47.9431 80.3195 48.2424 80.8474 48.2424 81.4448C48.2424 81.5301 48.236 81.6123 48.2265 81.6913V81.6818C48.2265 83.7837 46.1697 84.9184 44.7083 83.613C44.1193 83.2274 43.7372 82.5731 43.7372 81.8304C43.7372 81.2393 43.9792 80.7083 44.3676 80.3195C44.7369 79.7696 45.361 79.4156 46.0646 79.4156C46.6218 79.4156 47.128 79.6368 47.4942 79.9972H47.4815Z" fill="#54BD95"/>
</svg>
