<svg width="41" height="46" viewBox="0 0 41 46" fill="none" xmlns="http://www.w3.org/2000/svg">
<path d="M20.5756 0.131859C16.2297 0.961708 12.7693 4.11055 11.4502 8.23686L11.4262 8.32142C11.1832 9.00221 11.042 9.78763 11.042 10.6074C11.042 10.7766 11.0476 10.9457 11.0604 11.1119L11.0589 11.089C11.0307 11.2753 11.0152 11.4903 11.0152 11.7082C11.0152 12.3474 11.1536 12.9537 11.4007 13.4969L11.3894 13.4696C11.8004 14.6779 12.9021 15.5335 14.2043 15.555H14.2071C16.3766 15.8517 18.5078 14.8069 20.7917 12.323C21.5967 11.5978 22.1447 10.5931 22.2874 9.46085L22.2902 9.43792C22.2238 8.6525 21.8509 7.96598 21.2931 7.49731L21.2888 7.49301C21.0318 7.36688 20.7281 7.29235 20.4089 7.29235C19.8086 7.29235 19.2691 7.5532 18.892 7.96741L18.8906 7.96884C18.4132 8.34435 18.1053 8.92482 18.0997 9.57694V9.57838C18.0997 10.5315 19.1265 11.5491 19.8242 11.2782C20.0911 11.1764 20.125 11.1879 20.125 11.4445C20.0163 12.1095 19.7027 12.6857 19.2508 13.1171L19.2493 13.1185C18.5107 13.5757 17.618 13.8466 16.6633 13.8466C15.8978 13.8466 15.1732 13.6732 14.5249 13.3621L14.556 13.375C12.8682 12.5251 12.3357 10.219 13.1479 7.31098C13.823 4.08761 16.6039 1.70413 19.9343 1.70413C20.0247 1.70413 20.1151 1.70556 20.2041 1.70986H20.1914C20.3383 1.69553 20.5078 1.68693 20.6787 1.68693C22.8481 1.68693 24.7096 3.01985 25.5118 4.92176L25.5245 4.95616C27.2123 9.15414 26.1079 13.6216 22.2393 18.3226C21.3552 19.4549 20.3651 20.4424 19.2663 21.2923L19.2267 21.3224C18.5276 20.9927 17.9443 20.666 17.3864 20.3048L17.45 20.3435C14.8639 18.5118 11.6762 17.381 8.23559 17.2864H8.21299C8.10142 17.2806 7.97007 17.2778 7.8373 17.2778C6.99835 17.2778 6.18764 17.4082 5.42637 17.649L5.48286 17.6332C3.24141 18.2667 1.40673 19.7286 0.283889 21.6664L0.26129 21.7079C0.104516 22.0548 0.0141238 22.4604 0.0141238 22.8875C0.0141238 22.9563 0.0169485 23.0251 0.0211857 23.0939V23.0853C0.00706188 23.1727 0 23.273 0 23.3748C0 23.8263 0.151125 24.2405 0.405353 24.5716L0.402528 24.5673C1.0381 25.3684 1.90106 25.9604 2.89397 26.2413L2.92787 26.2499C3.78094 26.4434 4.76114 26.5552 5.76675 26.5552C6.89383 26.5552 7.98843 26.4161 9.03641 26.1524L8.9432 26.1725C11.3584 25.6623 13.443 25.0302 15.4514 24.2419L15.1718 24.3379L16.6054 23.746L17.7988 24.3136C18.2578 24.4956 18.6505 24.702 19.0191 24.9413L18.9923 24.9241C18.4612 25.3369 17.8525 25.7611 17.224 26.1553L17.1279 26.2112C16.1124 26.8805 14.8441 27.7304 14.3102 28.1045C13.7764 28.4786 12.3442 29.3658 11.1253 30.0924C9.90644 30.8191 8.30762 31.8195 7.57177 32.3211C6.18905 33.2742 3.80495 35.4771 4.15805 35.4886C5.9433 34.6 7.47856 33.6096 8.89376 32.4716L8.84009 32.5132C12.7241 29.7456 14.8554 28.91 18.1011 28.91C18.2819 28.8928 18.4923 28.8842 18.7056 28.8842C20.6518 28.8842 22.4117 29.6868 23.6842 30.9839C25.0542 32.3569 25.9031 34.2632 25.9031 36.3715C25.9031 36.5148 25.8988 36.6567 25.8918 36.7986L25.8932 36.7785C25.8988 36.8889 25.9017 37.0164 25.9017 37.1469C25.9017 39.2265 25.1333 41.1241 23.8706 42.5631L23.8777 42.5545C22.8142 43.7039 21.3072 44.4191 19.6349 44.4191C19.4259 44.4191 19.2211 44.4077 19.0177 44.3862L19.0431 44.389C18.9217 44.3991 18.7804 44.4048 18.6392 44.4048C17.6336 44.4048 16.6943 44.1139 15.9006 43.6108L15.9218 43.6237C14.8243 42.8368 14.1167 41.5555 14.1167 40.1065C14.1167 39.9804 14.1224 39.8557 14.1323 39.7324L14.1309 39.7482C14.1224 39.6436 14.1167 39.5217 14.1167 39.3985C14.1167 37.9824 14.7862 36.7255 15.8201 35.9329L15.8314 35.9243C16.3045 35.6577 16.8709 35.5001 17.4712 35.5001C17.8468 35.5001 18.2084 35.5617 18.546 35.6749L18.522 35.6677L18.9923 35.8741L18.6745 36.3514C18.4754 36.638 18.3567 36.9935 18.3567 37.3776C18.3567 37.3876 18.3567 37.3977 18.3567 37.4091V37.4077C18.3539 37.4392 18.3525 37.4765 18.3525 37.5138C18.3525 37.9122 18.5488 38.2633 18.8482 38.4755L18.8525 38.4783C19.0643 38.7879 19.4146 38.99 19.8101 38.99C19.8623 38.99 19.9132 38.9871 19.9626 38.98H19.9569C20.8609 38.9112 21.6476 38.454 22.1645 37.7746L22.1701 37.7674C22.3086 37.4321 22.3876 37.0408 22.3876 36.6323C22.3876 35.824 22.0755 35.0901 21.5656 34.5469L21.5671 34.5484C20.9965 34.1628 20.2945 33.9335 19.5403 33.9335C19.0968 33.9335 18.6731 34.0123 18.279 34.1585L18.3045 34.1499C16.2622 34.8766 14.5179 36.0089 13.0885 37.4593C12.2722 38.3966 11.7736 39.6364 11.7736 40.9951C11.7736 42.9701 12.8272 44.6943 14.395 45.6216L14.4204 45.636C15.0871 45.8667 15.8554 46 16.6548 46C17.4669 46 18.248 45.8624 18.9753 45.6087L18.9245 45.6245C24.2407 44.2729 27.2999 41.5426 28.1488 37.369C28.3055 36.7484 28.3945 36.0375 28.3945 35.3037C28.3945 33.9335 28.081 32.6379 27.5245 31.4855L27.5471 31.5371C26.92 30.3303 26.0556 29.3285 25.0104 28.5674L24.985 28.5502C23.5077 27.7419 21.7507 27.2661 19.8849 27.2661C18.7437 27.2661 17.6435 27.4438 16.611 27.7734L16.6887 27.7519C16.409 27.8494 16.0814 27.9225 15.7438 27.9569L15.7254 27.9583C15.7 27.9454 16.6011 27.2761 17.7169 26.4907C19.7084 25.0746 19.7592 25.0488 20.1024 25.2294C21.9103 25.9432 24.0034 26.419 26.1855 26.5537L26.2449 26.5566C30.8379 26.8132 36.1668 25.0273 38.8574 22.2941C39.7599 21.4958 40.4266 20.4438 40.75 19.2485L40.7599 19.2041C40.911 18.8171 41 18.3699 41 17.9012C41 16.6414 40.3658 15.5335 39.4026 14.8857L39.3899 14.8771C38.9379 14.632 38.7176 14.6062 37.7148 14.6578C35.0638 14.8112 31.1162 16.6787 24.3537 21.0314L21.6504 22.7814L21.0473 22.4848C20.6787 22.3156 20.3623 22.125 20.0685 21.9072L20.0841 21.9172L19.7423 21.6463L20.9357 20.7448C22.6292 19.4162 24.0952 17.9113 25.3466 16.2329L25.389 16.1727C26.5499 14.4485 27.5457 12.4707 28.2787 10.3667L28.3338 10.1861C28.5993 9.2473 28.7504 8.16806 28.7504 7.05443C28.7504 6.36361 28.6925 5.68568 28.5795 5.02639L28.5894 5.09662C27.9906 2.19 25.4949 0.0343979 22.5006 0.0128992H22.4978C22.3622 0.00573298 22.204 0 22.0459 0C21.5289 0 21.0233 0.0472971 20.5318 0.136158L20.584 0.128992L20.5756 0.131859ZM20.9597 8.51348C21.7591 9.31179 20.9089 10.702 19.9188 10.2262C19.5403 10.0585 19.2804 9.68157 19.2804 9.243C19.2804 9.17707 19.2861 9.11114 19.2974 9.04808L19.2959 9.05524C19.3623 8.57224 19.7663 8.20533 20.255 8.20533C20.5332 8.20533 20.7832 8.32429 20.9597 8.51348ZM36.9973 17.0642C38.0524 17.606 38.2021 19.1897 37.3645 20.9655C36.5468 22.651 34.996 23.8607 33.1472 24.1717L33.1133 24.176C32.0314 24.4039 30.7885 24.5343 29.5159 24.5343C28.6318 24.5343 27.7618 24.4712 26.9101 24.3494L27.0075 24.3609C25.5768 24.1516 24.2929 23.8134 23.0698 23.3519L23.2012 23.3949C22.6941 23.1125 33.2771 17.1373 34.8491 16.8206C35.0581 16.7761 35.2996 16.7503 35.5454 16.7503C36.0694 16.7503 36.5665 16.865 37.0157 17.0728L36.9931 17.0642H36.9973ZM8.71015 19.8447C10.1508 20.0626 11.4502 20.5054 12.6337 21.1389L12.5674 21.106C13.5857 21.6133 14.4628 22.2153 15.2481 22.9205L15.2354 22.909C15.1718 22.9348 14.5631 23.1541 13.8894 23.3676C11.9304 24.0699 9.67057 24.4755 7.31613 24.4755C6.56051 24.4755 5.81336 24.434 5.07892 24.3523L5.16931 24.3609C3.33039 23.9624 2.69624 23.2802 2.68211 21.6821C2.68211 20.8709 2.70753 20.7806 3.07475 20.4065C3.35582 20.1457 3.69479 19.9465 4.07189 19.8318L4.09025 19.8275C4.76679 19.7243 5.54783 19.6656 6.34159 19.6656C7.17631 19.6656 7.99549 19.7301 8.79631 19.8562L8.70733 19.8447H8.71015ZM21.0628 36.2754C21.2676 36.4216 21.4004 36.661 21.4004 36.9319C21.4004 36.9706 21.3976 37.0078 21.3933 37.0437V37.0394C21.3933 37.9925 20.4809 38.507 19.8327 37.9151C19.5714 37.7402 19.4019 37.4435 19.4019 37.1067C19.4019 36.8387 19.5092 36.5979 19.6815 36.4216C19.8454 36.1722 20.1222 36.0117 20.4343 36.0117C20.6815 36.0117 20.9061 36.112 21.0685 36.2754H21.0628Z" fill="#54BD95"/>
</svg>
