<?xml version="1.0" standalone="no"?>
<!DOCTYPE svg PUBLIC "-//W3C//DTD SVG 1.1//EN" "http://www.w3.org/Graphics/SVG/1.1/DTD/svg11.dtd" >
<svg xmlns="http://www.w3.org/2000/svg">
<metadata>Generated by IcoMoon</metadata>
<defs>
<font id="icomoon" horiz-adv-x="1024">
<font-face units-per-em="1024" ascent="960" descent="-64" />
<missing-glyph horiz-adv-x="1024" />
<glyph unicode="&#x20;" horiz-adv-x="512" d="" />
<glyph unicode="&#xe900;" glyph-name="half-rated-star--1" horiz-adv-x="1069" d="M520.525 933.115l2.056-2.056zM361.416 618.512c-61.592-0.502-124.309-11.155-185.71-16.322-43.475-3.658-93.63-1.812-135.67-13.479-34.378-9.541-49.637-50.624-33.732-81.235 11.266-21.685 37.629-37.734 55.804-53.709 41.059-36.087 82.372-72.161 124.085-107.477 15.376-13.018 30.311-26.577 45.837-39.424 5.92-4.898 16.497-10.507 18.247-18.564 4.112-18.891-10.991-51.901-15.276-70.755l-41.423-180.948c-8.139-35.811-24.864-80.877 15.508-104.909 30.769-18.319 58.469-1.213 85.553 14.172 58.874 33.444 116.985 68.53 175.293 103.074 15.321 9.076 30.88 17.856 45.911 27.364 5.322 3.366 12.89 9.808 19.668 8.801 22.682-3.37 50.544-28.376 70.070-39.864 53.524-31.473 106.593-63.934 160.69-94.424 33.593-18.932 76.533-45.821 108.186-6.553 20.735 25.723 10.076 55.29 3.621 84.114-14.303 63.801-29.544 127.43-43.824 191.229-3.89 17.377-20.324 52.962-13.937 69.831 7.238 19.111 42.691 40.423 58.458 53.511 46.763 38.817 91.621 79.934 137.921 119.292 28.287 24.045 68.367 54.708 47.686 96.673-17.947 36.414-62.785 34.339-97.959 36.957-59.425 4.413-118.644 11.938-178.081 16.111-20.151 1.413-58.641-2.089-75.86 8.616-6.644 4.131-9.253 13.877-12.459 20.536-9.321 19.363-17.431 39.745-25.577 59.631-20.899 51.023-43.107 102.217-66.533 152.161-9.913 21.128-15.341 48.268-32.474 65.129-24.934 24.555-70.2 18.722-89.154-9.611-11.192-16.734-16.806-37.312-25.065-55.518-20.069-44.209-38.883-88.956-57.78-133.655-13.446-31.806-36.642-66.603-42.025-100.755zM551.985 933.115l2.056-2.056zM516.721 931.058v0zM555.789 931.058l2.056-2.056zM506.44 926.946v0zM566.070 926.946l2.056-2.056zM495.334 918.721v0zM493.278 916.665l2.056-2.056zM579.251 916.665l2.056-2.056zM581.348 914.609l2.056-2.056zM487.911 908.44v0zM586.61 904.327v0zM483.799 900.215l2.056-2.056zM480.675 896.102l2.056-2.056zM591.835 896.102l2.056-2.056zM474.383 881.709l2.056-2.056zM598.127 881.709l2.056-2.056zM473.563 875.54v0zM598.993 875.54v0zM601.049 871.428l2.056-2.056zM469.426 867.315v0zM603.080 867.315l2.056-2.056zM467.37 861.147v0zM605.137 861.147v0zM465.313 857.034v0zM607.193 857.034l2.056-2.056zM610.711 852.922l2.056-2.056zM609.227 850.866v0zM461.178 846.753l2.056-2.056zM617.003 838.528l2.056-2.056zM455.057 832.36v0zM619.555 828.247l2.056-2.056zM623.295 824.135l2.056-2.056zM627.49 813.853l2.056-2.056zM629.587 809.741l2.056-2.056zM440.803 803.572v0zM438.747 799.46l2.056-2.056zM635.879 795.347l2.056-2.056zM438.582 793.291v0zM635.98 789.179v0zM434.47 785.066v0zM640.093 778.898v0zM642.149 774.785v0zM644.205 770.673v0zM426.245 764.504v0zM648.317 760.392v0zM650.374 756.279v0zM654.486 745.998v0zM660.655 731.604v0zM409.795 727.492v0zM407.739 721.323v0zM664.767 721.323v0zM405.683 717.211v0zM666.823 717.211l2.056-2.056zM400.978 713.098l2.056-2.056zM398.881 706.93l2.056-2.056zM394.686 698.705l2.056-2.056zM675.048 698.705v0zM393.346 688.424v0zM679.161 688.424l2.056-2.056zM388.394 684.311l2.056-2.056zM684.116 684.311l2.056-2.056zM384.199 674.030l2.056-2.056zM382.102 669.918l2.056-2.056zM690.408 669.918l2.056-2.056zM378.95 655.524v0zM693.552 655.524l2.056-2.056zM698.824 649.355v0zM700.881 645.243l2.056-2.056zM372.781 641.131v0zM699.721 641.131l2.056-2.056zM367.421 634.962l2.056-2.056zM366.613 626.737v0zM705.89 626.737l2.056-2.056zM361.129 620.568l2.056-2.056zM344.35 618.512l2.056-2.056zM350.163 618.512v0zM722.339 618.512l2.056-2.056zM728.161 618.512l2.056-2.056zM327.156 616.456v0zM747.43 616.456v0zM751.632 616.456v0zM304.042 614.4v0zM770.546 614.4v0zM280.928 612.343v0zM793.662 612.343v0zM257.809 610.287v0zM816.772 610.287v0zM234.693 608.231v0zM839.886 608.231v0zM211.577 606.175v0zM863 606.175v0zM188.465 604.119v0zM886.118 604.119v0zM165.349 602.062v0zM909.232 602.062v0zM142.235 600.006v0zM932.348 600.006v0zM119.111 597.95v0zM955.454 597.95v0zM95.995 595.894v0zM978.568 595.894v0zM72.889 593.837v0zM1001.686 593.837v0zM47.674 591.781v0zM1024.808 591.781l2.101-2.056zM37.392 589.725l2.056-2.056zM1033.078 589.725l2.056-2.056zM1035.134 589.725l2.056-2.056zM25.261 583.556v0zM1047.172 583.556v0zM16.873 577.388v0zM1055.571 577.388v0zM14.774 575.331v0zM1057.669 575.331v0zM1059.768 573.275l2.099-2.056zM10.662 571.219l2.056-2.056zM1061.865 571.219l2.056-2.056zM6.631 565.050v0zM1065.937 565.050v0zM4.534 560.938v0zM2.437 556.825l2.097-2.056zM0.38 550.657l2.056-2.056zM1072.105 548.6v0zM0.38 521.87v0zM1072.105 521.87l2.097-2.056zM0.38 519.813l2.056-2.056zM4.493 509.532v0zM1067.993 509.532l2.097-2.056zM1063.922 503.364l2.056-2.056zM14.774 495.139v0zM1057.712 495.139l2.099-2.056zM1049.485 488.97v0zM1047.385 486.914v0zM29.168 482.801v0zM1043.187 482.801v0zM31.267 480.745l2.099-2.056zM1039.247 478.689l2.056-2.056zM41.505 472.52v0zM1026.864 468.408v0zM1024.763 466.351l2.101-2.056zM49.73 464.295v0zM1022.752 464.295l2.101-2.056zM60.011 456.070v0zM1012.471 456.070v0zM1010.367 454.014v0zM1008.264 451.958l2.104-2.056zM66.18 449.902v0zM1006.3 449.902l2.104-2.056zM80.573 437.564l2.056-2.056zM82.629 435.508v0zM989.848 435.508l2.106-2.056zM97.023 423.171l2.056-2.056zM99.079 421.115v0zM973.398 421.115l2.108-2.056zM109.36 412.89v0zM111.417 410.833v0zM113.473 408.777l2.056-2.056zM115.529 406.721l2.056-2.056zM956.936 406.721v0zM125.81 398.496v0zM946.398 398.496v0zM127.92 396.44v0zM944.288 396.44v0zM130.023 394.384l2.11-2.056zM131.979 392.327l2.056-2.056zM940.486 392.327v0zM932.037 386.159v0zM927.814 382.046v0zM146.372 379.99l2.112-2.056zM148.429 377.934l2.056-2.056zM915.873 371.765v0zM913.817 369.709v0zM183.857 365.596v0zM909.705 365.596v0zM185.914 363.54l2.056-2.056zM905.592 361.484l2.056-2.056zM183.413 357.372v0zM882.53 351.203l2.056-2.056zM183.384 347.090v0zM889.081 347.090l2.12-2.056zM193.666 338.866v0zM878.8 338.866v0zM876.678 336.809v0zM874.556 334.753l2.122-2.056zM199.834 332.697v0zM872.631 332.697l2.122-2.056zM854.084 326.528v0zM852.028 324.472v0zM849.971 322.416v0zM224.879 320.36l2.056-2.056zM216.284 318.303v0zM856.181 318.303l2.126-2.056zM235.29 305.966l2.056-2.056zM232.734 303.91v0zM839.719 303.91l2.13-2.056zM240.959 297.741v0zM831.492 297.741v0zM243.089 295.685v0zM245.221 293.629v0zM247.354 289.516l2.132-2.056zM249.969 283.347l2.056-2.056zM822.541 283.347l2.056-2.056zM827.082 281.291v0zM243.165 273.066v0zM241.744 263.47v0zM238.902 254.56v0zM833.474 254.56v0zM835.605 246.335l2.13-2.056zM234.79 238.111v0zM837.663 238.111l2.13-2.056zM232.878 227.829v0zM230.75 219.604v0zM228.621 209.323v0zM846.622 199.727l0.711-1.369zM224.509 192.874v0zM847.956 192.874l2.128-2.056zM839.454 182.592v0zM230.811 174.368v0zM841.51 172.311v0zM227.384 154.49l0.687-1.369zM214.228 147.637v0zM858.237 147.637l2.126-2.056zM224.673 145.58v0zM222.617 137.355v0zM851.822 129.131v0zM218.505 118.849v0zM853.878 118.849v0zM216.449 110.625l2.056-2.056zM203.947 102.4v0zM868.519 102.4l2.124-2.056zM212.332 92.119v0zM860.043 90.062v0zM535.159 88.006v0zM531.047 85.95v0zM862.099 83.894v0zM524.878 81.837v0zM520.766 79.781v0zM514.597 75.669v0zM557.778 75.669v0zM864.155 73.613v0zM568.059 69.5v0zM572.171 67.444v0zM206.163 65.388v0zM496.091 65.388v0zM494.035 63.331l2.056-2.056zM579.251 63.331l2.056-2.056zM870.69 63.331v0zM494.401 61.275v0zM586.931 61.275v0zM591.043 59.219l2.056-2.056zM193.666 57.163l2.056-2.056zM482.773 57.163l2.056-2.056zM593.92 57.163v0zM873.567 57.163l2.056-2.056zM878.861 55.106l2.056-2.056zM472.286 50.994l2.056-2.056zM600.224 50.994l2.056-2.056zM191.609 46.882v0zM880.856 46.882l2.12-2.056zM461.799 44.825l2.056-2.056zM610.711 44.825l2.056-2.056zM190.238 37.285l0.685-1.369zM452.976 38.657v0zM619.53 38.657l2.056-2.056zM882.974 38.657l2.056-2.056zM448.913 36.6v0zM623.692 36.6v0zM627.805 34.544l2.056-2.056zM442.695 32.488v0zM629.811 32.488l2.056-2.056zM434.474 30.432v0zM629.816 30.432v0zM193.896 28.376l2.056-2.056zM432.414 26.319v0zM640.093 26.319l2.056-2.056zM428.301 24.263v0zM644.205 24.263l2.056-2.056zM419.854 20.151l2.056-2.056zM887.025 20.151v0zM185.441 18.094v0zM658.107 18.094v0zM410.116 16.038l2.12-2.056zM405.967 13.982v0zM188.007 11.926l2.056-2.056zM183.384 9.87v0zM889.017 9.87v0zM891.137 1.645v0zM382.573-0.412v0zM378.335-2.468v0zM694.068-2.468l2.12-2.056zM179.272-6.58v0zM893.193-6.58l2.118-2.056zM186.644-8.636v0zM696.587-8.636v0zM363.479-12.749v0zM359.366-14.805v0zM353.198-18.918v0zM349.085-20.974v0zM717.15-20.974v0zM344.973-23.030v0zM721.262-23.030v0zM342.917-25.086v0zM338.804-27.143v0zM727.431-27.143l2.056-2.056zM179.272-31.255l2.056-2.056zM742.287-35.367v0zM189.162-37.424v0zM314.592-41.536v0zM312.536-43.592v0zM754.624-43.592v0zM193.275-45.649v0zM308.423-45.649v0zM195.331-49.761l2.056-2.056zM300.305-49.761l2.056-2.056zM773.916-49.761v0zM880.839-49.761v0zM778.028-51.817l2.056-2.056zM191.609-55.93l2.056-2.056zM289.819-55.93l2.056-2.056zM782.692-55.93l2.056-2.056zM282.7-57.986v0zM878.8-57.986v0zM195.722-60.042v0zM278.454-60.042v0zM793.95-60.042v0zM197.85-62.098l2.122-2.056zM279.332-62.098l2.056-2.056zM794.39-62.098v0zM870.47-62.098l2.056-2.056zM868.58-66.211l2.056-2.056z" />
<glyph unicode="&#xe901;" glyph-name="left-half-rated-star" horiz-adv-x="514" d="M506.292 955.361l2-2zM350.68 636.299c-58.94-0.508-118.956-11.312-177.712-16.552-41.6-3.71-89.6-1.838-129.826-13.668-32.898-9.676-47.498-51.34-32.28-82.382 10.78-22 36-38.266 53.4-54.468 39.29-36.6 78.826-73.18 118.742-109 14.716-13.2 29-26.952 43.864-39.98 5.666-4.968 15.786-10.656 17.462-18.826 3.926-19.158-10.516-52.634-14.618-71.754l-39.64-183.508c-7.782-36.318-23.8-82.020 14.836-106.4 29.444-18.578 55.95-1.23 81.868 14.372 56.342 33.916 111.958 69.506 167.748 104.53 14.662 9.2 48.37 35.984 62.754 45.626v0s-6-36.8-10.85 846.14c-13.676 0.464-27.186-5.76-36.256-20.132-10.71-16.97-16.082-37.838-23.986-56.294-19.2-44.836-37.2-90.214-55.29-135.542-12.868-32.24-35.062-67.528-40.216-102.162zM502.592 953.361v0zM540.592 953.361l2-2zM492.592 949.361v0zM550.592 949.361l2-2zM481.79 941.361v0zM479.79 939.361l2-2zM474.57 931.361v0zM570.57 927.361v0zM470.57 923.361l2-2zM467.532 919.361l2-2zM461.412 905.361l2-2zM460.614 899.361v0zM582.614 899.361v0zM584.614 895.361l2-2zM456.59 891.361v0zM586.59 891.361l2-2zM454.59 885.361v0zM588.59 885.361v0zM452.59 881.361v0zM590.59 881.361l2-2zM592.568 875.361v0zM448.568 871.361l2-2zM442.614 857.361v0zM602.614 853.361l2-2zM428.75 829.361v0zM426.75 825.361l2-2zM426.59 819.361v0zM618.59 815.361v0zM422.59 811.361v0zM622.59 805.361v0zM624.59 801.361v0zM626.59 797.361v0zM414.59 791.361v0zM630.59 787.361v0zM632.59 783.361v0zM636.59 773.361v0zM642.59 759.361v0zM398.59 755.361v0zM396.59 749.361v0zM646.59 749.361v0zM394.59 745.361v0zM648.59 745.361l2-2zM390.014 732.259l2-2zM387.974 726.003l2-2zM383.894 717.665l2-2zM656.59 717.565v0zM382.59 707.565v0zM660.59 707.565l2-2zM377.774 703.069l2-2zM373.694 692.645l2-2zM371.654 688.475l2-2zM368.588 673.881v0zM674.588 673.881l2-2zM362.588 659.287v0zM680.588 659.287l2-2zM357.374 653.031l2-2zM356.588 644.691v0zM686.588 644.691l2-2zM351.254 638.437l2-2zM334.934 636.353l2-2zM340.588 636.353v0zM702.588 636.353l2-2zM318.21 633.939v0zM726.992 633.939v0zM731.080 633.939v0zM295.728 631.939v0zM749.476 631.939v0zM273.246 629.939v0zM771.96 629.939v0zM250.76 627.939v0zM794.438 627.939v0zM228.276 625.939v0zM816.92 625.939v0zM205.792 623.939v0zM839.402 623.939v0zM183.312 621.939v0zM861.888 621.939v0zM160.828 619.939v0zM884.37 619.939v0zM138.346 617.939v0zM906.854 617.939v0zM115.854 615.939v0zM929.328 615.939v0zM93.37 613.939v0zM951.81 613.939v0zM70.896 611.939v0zM974.296 611.939v0zM46.37 609.939v0zM996.786 609.939l2.044-2zM36.37 607.163l2-2zM24.57 600.759v0zM1018.538 600.759v0zM16.412 594.759v0zM1026.708 594.759v0zM14.37 592.759v0zM1028.748 592.759v0zM1030.79 590.759l2.042-2zM10.37 588.399l2-2zM6.45 582.019v0zM1036.79 582.019v0zM4.41 578.019v0zM2.37 574.019l2.040-2zM0.37 567.549l2-2zM1042.79 565.031v0zM0.37 539.031v0zM1042.79 539.031l2.040-2zM0.37 536.275l2-2zM4.37 525.851v0zM1038.79 525.851l2.040-2zM14.37 511.257v0zM1028.79 511.257l2.042-2zM1020.788 504.851v0zM1018.746 502.851v0zM28.37 498.851v0zM1014.662 498.851v0zM30.412 496.851l2.042-2zM40.37 488.205v0zM998.786 484.205v0zM996.742 482.205l2.044-2zM48.37 479.983v0zM994.786 479.983l2.044-2zM58.37 471.563v0zM984.786 471.563v0zM982.74 469.563v0zM980.694 467.563l2.046-2zM64.37 465.389v0zM978.784 465.389l2.046-2zM78.37 452.879l2-2zM80.37 450.795v0zM962.782 450.795l2.048-2zM94.37 438.285l2-2zM96.37 436.199v0zM946.782 436.199l2.050-2zM106.37 427.771v0zM108.37 425.771v0zM110.37 423.771l2-2zM112.37 421.605l2-2zM930.77 421.335v0zM122.37 413.335v0zM920.52 413.335v0zM124.422 411.335v0zM918.468 411.335v0zM126.468 409.335l2.052-2zM128.37 407.011l2-2zM914.77 406.733v0zM906.552 400.733v0zM902.444 396.733v0zM142.37 394.733l2.054-2zM144.37 392.417l2-2zM890.83 385.971v0zM888.83 383.971v0zM178.83 379.971v0zM884.83 379.971v0zM180.83 377.971l2-2zM178.398 371.421v0zM858.398 365.421l2-2zM178.37 361.143v0zM864.77 361.143l2.062-2zM188.37 352.703v0zM854.77 352.703v0zM852.706 350.703v0zM850.642 348.703l2.064-2zM194.37 346.549v0zM848.77 346.549l2.064-2zM830.73 340.139v0zM828.73 338.139v0zM826.73 336.139v0zM218.73 334.139l2-2zM210.37 331.953v0zM832.77 331.953l2.068-2zM228.856 319.445l2-2zM226.37 317.359v0zM816.758 317.359l2.072-2zM234.37 310.889v0zM808.756 310.889v0zM236.442 308.889v0zM238.516 306.889v0zM240.59 302.889l2.074-2zM243.134 296.509l2-2zM804.466 293.457v0zM236.516 285.457v0zM235.134 276.123v0zM232.37 267.457v0zM810.684 267.457v0zM812.756 259.457l2.072-2zM228.37 250.641v0zM814.758 250.641l2.072-2zM226.51 239.403v0zM224.44 231.403v0zM222.37 221.403v0zM823.472 212.069l0.692-1.332zM218.37 204.773v0zM824.77 204.773l2.070-2zM816.5 193.481v0zM224.5 185.481v0zM818.5 183.481v0zM221.166 166.147l0.668-1.332zM208.37 158.905v0zM834.77 158.905l2.068-2zM218.53 155.651v0zM216.53 147.651v0zM828.53 139.651v0zM212.53 129.651v0zM830.53 129.651v0zM210.53 121.651l2-2zM198.37 105.733v0zM844.77 105.733l2.066-2zM206.526 95.733v0zM836.526 93.733v0zM520.526 91.733v0zM516.526 89.733v0zM838.526 87.733v0zM510.526 85.733v0zM506.526 83.733v0zM500.526 79.733v0zM542.526 79.733v0zM840.526 77.733v0zM552.526 73.733v0zM556.526 71.733v0zM200.526 69.733v0zM482.526 69.733v0zM480.526 67.733l2-2zM846.882 67.733v0zM480.882 65.733v0zM570.882 65.733v0zM574.882 63.733l2-2zM188.37 61.733l2-2zM469.572 61.733l2-2zM459.372 55.733l2-2zM186.37 51.733v0zM856.77 51.733l2.062-2zM449.172 49.733l2-2zM185.036 42.399l0.666-1.332zM440.59 43.733v0zM602.59 43.733l2-2zM436.638 41.733v0zM606.638 41.733v0zM610.638 39.733l2-2zM430.59 37.733v0zM612.59 37.733l2-2zM422.594 35.733v0zM612.594 35.733v0zM188.594 33.733l2-2zM420.59 31.733v0zM622.59 31.733l2-2zM416.59 29.733v0zM626.59 29.733l2-2zM408.374 25.733l2-2zM862.77 25.733v0zM180.37 23.733v0zM640.112 23.733v0zM398.902 21.733l2.062-2zM394.866 19.733v0zM182.866 17.733l2-2zM178.37 15.733v0zM864.708 15.733v0zM866.77 7.733v0zM372.112 5.733v0zM367.99 3.733v0zM675.090 3.733l2.062-2zM174.37-0.267v0zM868.77-0.267l2.060-2zM181.54-2.267v0zM677.54-2.267v0zM353.54-6.267v0zM349.54-8.267v0zM343.54-12.267v0zM339.54-14.267v0zM697.54-14.267v0zM335.54-16.267v0zM701.54-16.267v0zM333.54-18.267v0zM329.54-20.267v0zM707.54-20.267l2-2zM174.37-24.267l2-2zM721.99-28.267v0zM183.99-30.267v0zM305.99-34.267v0zM303.99-36.267v0zM733.99-36.267v0zM187.99-38.267v0zM299.99-38.267v0zM189.99-42.267l2-2zM292.094-42.267l2-2zM186.37-48.267l2-2zM281.894-48.267l2-2zM274.97-50.267v0zM854.77-50.267v0zM190.37-52.267v0zM270.84-52.267v0zM772.24-52.267v0zM192.44-54.267l2.064-2zM271.694-54.267l2-2zM257.414-62.267l2-2zM219.778-64.267v0zM255.778-64.267v0zM785.778-64.267l2-2zM220.696-66.267l2-2zM350.68 636.299c-58.94-0.508-118.956-11.312-177.712-16.552-41.6-3.71-89.6-1.838-129.826-13.668-32.898-9.676-47.498-51.34-32.28-82.382 10.78-22 36-38.266 53.4-54.468 39.29-36.6 78.826-73.18 118.742-109 14.716-13.2 29-26.952 43.864-39.98 5.666-4.968 15.786-10.656 17.462-18.826 3.926-19.158-10.516-52.634-14.618-71.754l-39.64-183.508c-7.782-36.318-23.8-82.020 14.836-106.4 29.444-18.578 55.95-1.23 81.868 14.372 56.342 33.916 111.958 69.506 167.748 104.53 14.662 9.2 48.37 35.984 62.754 45.626v0s-3.416 834.928-4.13 850.672c-13.676 0.464-33.906-10.276-42.974-24.648-10.71-16.97-16.082-37.838-23.986-56.294-19.2-44.836-37.2-90.214-55.29-135.542-12.87-32.256-35.064-67.544-40.218-102.178z" />
<glyph unicode="&#xe902;" glyph-name="right-half-rated-star" horiz-adv-x="514" d="M8.078 955.361l-2-2zM163.69 636.299c58.94-0.508 118.956-11.312 177.712-16.552 41.6-3.71 89.6-1.838 129.826-13.668 32.898-9.676 47.498-51.34 32.28-82.382-10.78-22-36-38.266-53.4-54.468-39.29-36.6-78.826-73.18-118.742-109-14.716-13.2-29-26.952-43.864-39.98-5.666-4.968-15.786-10.656-17.462-18.826-3.926-19.158 10.516-52.634 14.618-71.754l39.642-183.508c7.782-36.318 23.8-82.020-14.836-106.4-29.444-18.578-55.95-1.23-81.868 14.372-56.342 33.916-111.958 69.506-167.748 104.53-14.662 9.2-48.37 35.984-62.754 45.626v0s6-36.8 10.85 846.14c13.676 0.464 27.186-5.76 36.256-20.132 10.71-16.97 16.082-37.838 23.986-56.294 19.2-44.836 37.2-90.214 55.29-135.542 12.866-32.24 35.060-67.528 40.214-102.162zM11.778 953.361v0zM-26.222 953.361l-2-2zM21.778 949.361v0zM-36.222 949.361l-2-2zM32.58 941.361v0zM34.58 939.361l-2-2zM39.802 931.361v0zM-56.198 927.361v0zM43.802 923.361l-2-2zM46.838 919.361l-2-2zM52.958 905.361l-2-2zM53.756 899.361v0zM-68.244 899.361v0zM-70.244 895.361l-2-2zM57.78 891.361v0zM-72.22 891.361l-2-2zM59.78 885.361v0zM-74.22 885.361v0zM61.78 881.361v0zM-76.22 881.361l-2-2zM-78.198 875.361v0zM65.802 871.361l-2-2zM71.756 857.361v0zM-88.244 853.361l-2-2zM85.62 829.361v0zM87.62 825.361l-2-2zM87.78 819.361v0zM-104.22 815.361v0zM91.78 811.361v0zM-108.22 805.361v0zM-110.22 801.361v0zM-112.22 797.361v0zM99.78 791.361v0zM-116.22 787.361v0zM-118.22 783.361v0zM-122.22 773.361v0zM-128.22 759.361v0zM115.78 755.361v0zM117.78 749.361v0zM-132.22 749.361v0zM119.78 745.361v0zM-134.22 745.361l-2-2zM124.356 732.259l-2-2zM126.396 726.003l-2-2zM130.476 717.665l-2-2zM-142.218 717.565v0zM131.782 707.565v0zM-146.218 707.565l-2-2zM136.596 703.069l-2-2zM140.676 692.645l-2-2zM142.716 688.475l-2-2zM145.782 673.881v0zM-160.218 673.881l-2-2zM151.782 659.287v0zM-166.218 659.287l-2-2zM156.996 653.031l-2-2zM157.782 644.691v0zM-172.218 644.691l-2-2zM163.116 638.437l-2-2zM179.436 636.353l-2-2zM173.782 636.353v0zM-188.218 636.353l-2-2zM196.16 633.939v0zM-212.62 633.939v0zM-216.708 633.939v0zM218.644 631.939v0zM-235.104 631.939v0zM241.126 629.939v0zM-257.588 629.939v0zM263.612 627.939v0zM-280.060 627.939v0zM286.102 625.939v0zM-302.542 625.939v0zM308.586 623.939v0zM-325.024 623.939v0zM331.070 621.939v0zM-347.518 621.939v0zM353.54 619.939v0zM-370.002 619.939v0zM376.024 617.939v0zM-392.484 617.939v0zM398.516 615.939v0zM-414.968 615.939v0zM420.99 613.939v0zM-437.46 613.939v0zM443.464 611.939v0zM-459.936 611.939v0zM467.998 609.939v0zM-482.416 609.939l-2.044-2zM478 607.163l-2-2zM489.796 600.759v0zM-504.172 600.759v0zM497.96 594.759v0zM-512.336 594.759v0zM500.002 592.759v0zM-514.378 592.759v0zM-516.42 590.759l-2.040-2zM504 588.399l-2-2zM507.92 582.019v0zM-522.42 582.019v0zM509.96 578.019v0zM512 574.019l-2.040-2zM514 567.549l-2-2zM-528.42 565.031v0zM514 539.031v0zM-528.42 539.031l-2.040-2zM514 536.275l-2-2zM510 525.851v0zM-524.42 525.851l-2.040-2zM500 511.257v0zM-514.418 511.257l-2.042-2zM-506.418 504.851v0zM-504.376 502.851v0zM486 498.851v0zM-500.292 498.851v0zM483.958 496.851l-2.042-2zM474 488.205v0zM-484.416 484.205v0zM-482.372 482.205l-2.044-2zM466 479.983v0zM-480.416 479.983l-2.044-2zM456 471.563v0zM-470.414 471.563v0zM-468.368 469.563v0zM-466.322 467.563l-2.046-2zM450 465.389v0zM-464.414 465.389l-2.046-2zM436 452.879l-2-2zM434 450.795v0zM-448.412 450.795l-2.048-2zM420 438.285l-2-2zM418 436.199v0zM-432.41 436.199l-2.050-2zM408 427.771v0zM406 425.771v0zM404 423.771l-2-2zM402 421.605l-2-2zM-416.408 421.335v0zM391.992 413.335v0zM-406.15 413.335v0zM389.94 411.335v0zM-404.098 411.335v0zM387.902 409.335l-2.052-2zM386 407.011l-2-2zM-400.406 406.733v0zM-392.188 400.733v0zM-388.080 396.733v0zM372 394.733l-2.054-2zM370 392.417l-2-2zM-376.46 385.971v0zM-374.46 383.971v0zM335.54 379.971v0zM-370.46 379.971v0zM333.54 377.971l-2-2zM335.972 371.421v0zM-344.028 365.421l-2-2zM336 361.143v0zM-350.4 361.143l-2.060-2zM326 352.703v0zM-340.4 352.703l-2.060-2 2.064 2zM-338.332 350.703v0zM-336.268 348.703l-2.064-2zM320 346.549v0zM-334.4 346.549l-2.060-2zM-316.36 340.139v0zM-314.36 338.139v0zM-312.36 336.139v0zM295.64 334.139l-2-2zM304 331.953v0zM-318.4 331.953l-2.060-2zM285.516 319.445l-2-2zM288 317.359v0zM-302.388 317.359l-2.072-2zM280 310.889v0zM-294.386 310.889v0zM277.926 308.889v0zM275.852 306.889v0zM273.778 302.889l-2.074-2zM271.236 296.511l-2-2zM-290.096 293.457v0zM277.854 285.457v0zM279.236 276.123v0zM282 267.457v0zM-296.314 267.457v0zM-298.386 259.457l-2.074-2zM286 250.641v0zM-300.388 250.641l-2.072-2zM287.86 239.403v0zM289.93 231.403v0zM292 221.403v0zM-309.102 212.069l-0.692-1.332zM296 204.773v0zM-310.4 204.773l-2.060-2zM-302.13 193.481v0zM289.87 185.481v0zM-304.13 183.481v0zM293.204 166.147l-0.668-1.332zM306 158.905v0zM-320.4 158.905l-2.060-2zM295.842 155.651v0zM297.842 147.651v0zM-314.158 139.651v0zM301.842 129.651v0zM-316.158 129.651v0zM303.842 121.651l-2-2zM316 105.733v0zM-330.4 105.733l-2.060-2zM307.844 95.733v0zM-322.156 93.733v0zM-6.156 91.733v0zM-2.156 89.733v0zM-324.156 87.733v0zM3.844 85.733v0zM7.844 83.733v0zM13.844 79.733v0zM-28.156 79.733v0zM-326.156 77.733v0zM-38.156 73.733v0zM-42.156 71.733v0zM313.844 69.733v0zM31.844 69.733v0zM33.844 67.733l-2-2zM-332.512 67.733v0zM33.488 65.733v0zM-56.512 65.733v0zM-60.512 63.733l-2-2zM326 61.733l-2-2zM44.798 61.733l-2-2zM54.998 55.733l-2-2zM328 51.733v0zM-342.4 51.733l-2.060-2zM65.198 49.733l-2-2zM329.334 42.399l-0.666-1.332zM73.78 43.733v0zM-88.22 43.733l-2-2zM77.732 41.733v0zM-92.268 41.733v0zM-96.268 39.733l-2-2zM83.78 37.733v0zM-98.22 37.733l-2-2zM91.776 35.733v0zM-98.224 35.733v0zM325.776 33.733l-2-2zM93.78 31.733v0zM-108.22 31.733l-2-2zM97.78 29.733v0zM-112.22 29.733l-2-2zM105.996 25.733l-2-2zM-348.398 25.733v0zM334.002 23.733v0zM-125.74 23.733v0zM115.47 21.733l-2.062-2zM119.504 19.733v0zM331.504 17.733l-2-2zM336 15.733v0zM-350.338 15.733v0zM-352.4 7.733l-2.060-2 2.062 2zM142.26 5.733v0zM146.382 3.733v0zM-160.718 3.733l-2.062-2zM340-0.267v0zM-354.4-0.267l-2.060-2zM332.83-2.267v0zM-163.17-2.267v0zM160.83-6.267v0zM164.83-8.267v0zM170.83-12.267v0zM174.83-14.267v0zM-183.17-14.267v0zM178.83-16.267v0zM-187.17-16.267v0zM180.83-18.267v0zM184.83-20.267v0zM-193.17-20.267l-2-2zM340-24.267l-2-2zM-207.62-28.267v0zM330.38-30.267v0zM208.38-34.267v0zM210.38-36.267v0zM-219.62-36.267v0zM326.38-38.267v0zM214.38-38.267v0zM324.38-42.267l-2-2zM222.276-42.267l-2-2zM328-48.267l-2-2zM232.476-48.267l-2-2zM239.404-50.267v0zM-340.396-50.267v0zM324.004-52.267v0zM243.534-52.267v0zM-257.866-52.267v0zM321.934-54.267l-2.064-2zM242.676-54.267l-2-2zM256.956-62.267l-2-2zM294.592-64.267v0zM258.592-64.267v0zM-271.408-64.267l-2-2zM293.676-66.267l-2-2zM163.69 636.299c58.94-0.508 118.956-11.312 177.712-16.552 41.6-3.71 89.6-1.838 129.826-13.668 32.898-9.676 47.498-51.34 32.28-82.382-10.78-22-36-38.266-53.4-54.468-39.29-36.6-78.826-73.18-118.742-109-14.716-13.2-29-26.952-43.864-39.98-5.666-4.968-15.786-10.656-17.462-18.826-3.926-19.158 10.516-52.634 14.618-71.754l39.642-183.508c7.782-36.318 23.8-82.020-14.836-106.4-29.444-18.578-55.95-1.23-81.868 14.372-56.342 33.916-111.958 69.506-167.748 104.53-14.662 9.2-48.37 35.984-62.754 45.626v0s-2.266-32.178 2.6 850.752c13.666 0.482 35.436-10.356 44.506-24.728 10.71-16.97 16.082-37.838 23.986-56.294 19.2-44.836 37.2-90.214 55.29-135.542 12.866-32.256 35.060-67.544 40.214-102.178z" />
<glyph unicode="&#xea4c;" glyph-name="add" d="M896 456.178h-349.054v337.422c0 8.95-3.669 17.529-10.24 23.88s-15.445 9.899-24.706 9.899c-9.257 0-18.132-3.547-24.702-9.899s-10.24-14.93-10.24-23.88v-337.463h-349.056c-9.259 0-18.133-3.546-24.661-9.858s-10.24-14.889-10.24-23.839c0-8.95 3.669-17.527 10.24-23.88s15.445-9.899 24.704-9.899h349.099v-337.463c0-8.95 3.71-17.527 10.24-23.839 6.526-6.311 15.401-9.899 24.661-9.899 9.257 0 18.132 3.546 24.702 9.899s10.24 14.93 10.24 23.88v337.422h349.099c9.26 0 18.135 3.587 24.661 9.899 6.53 6.311 10.199 14.93 10.199 23.839 0 8.95-3.669 17.527-10.24 23.88s-15.445 9.899-24.706 9.899z" />
<glyph unicode="&#xea4d;" glyph-name="add-file" d="M642.304 282.754c0-9.26-3.458-18.135-9.557-24.706-6.103-6.571-14.421-10.24-23.040-10.24h-65.154v-69.803c-0.297-9.045-3.84-17.623-9.899-23.938s-14.206-9.813-22.654-9.813c-8.448 0-16.599 3.543-22.658 9.813-6.059 6.274-9.643 14.892-9.899 23.938v69.844h-65.195c-8.448 0.3-16.469 4.099-22.357 10.626-5.888 6.53-9.172 15.23-9.172 24.279 0 9.042 3.284 17.79 9.172 24.276 5.888 6.526 13.909 10.325 22.357 10.622h65.154v69.803c-0.13 4.693 0.597 9.346 2.174 13.698 1.58 4.352 3.97 8.363 6.997 11.735 3.031 3.369 6.7 6.059 10.711 7.851 4.011 1.833 8.363 2.772 12.715 2.772s8.704-0.939 12.715-2.772c4.011-1.836 7.68-4.523 10.708-7.851 3.031-3.328 5.42-7.342 6.997-11.735 1.58-4.352 2.304-9.045 2.178-13.698v-69.803h65.195c8.66 0 16.937-3.666 23.040-10.237 6.1-6.571 9.557-15.449 9.557-24.706l-0.085 0.044zM837.803 475.262v-297.213c-0.044-46.295-17.237-90.627-47.787-123.351-30.549-32.727-71.936-51.115-115.159-51.159h-325.803c-43.177 0.044-84.607 18.476-115.113 51.2-30.507 32.727-47.701 77.056-47.787 123.351v488.747c0.043 46.251 17.237 90.624 47.787 123.349s71.936 51.115 115.113 51.2h147.115c29.952 0.085 59.648-6.187 87.34-18.475 27.689-12.288 52.821-30.336 73.94-53.077l113.538-121.856c21.248-22.613 38.1-49.536 49.579-79.232 11.476-29.696 17.323-61.44 17.237-93.566v0.082zM611.499 720.384c-10.24 10.624-21.76 19.797-34.219 27.221v-150.699c0-9.26 3.454-18.135 9.557-24.706 6.1-6.571 14.421-10.24 23.040-10.24h140.629c-6.956 13.356-15.49 25.685-25.474 36.652l-113.534 121.771zM772.779 475.307c0 5.758-1.024 11.435-1.536 16.937h-161.536c-25.9 0-50.773 11.008-69.12 30.679-18.347 19.668-28.631 46.251-28.631 74.027v172.928c-5.246 0.512-10.452 1.621-15.828 1.621h-147.074c-25.94 0-50.772-11.051-69.119-30.677s-28.629-46.293-28.629-74.069v-488.747c0-27.778 10.283-54.402 28.629-74.069 18.347-19.671 43.179-30.679 69.119-30.679h325.847c25.941 0 50.773 11.052 69.12 30.679s28.628 46.292 28.628 74.069l0.13 297.257v0.044z" />
<glyph unicode="&#xea4e;" glyph-name="add-folder" d="M651.646 320.853c0-9.001-3.669-17.579-10.24-23.934-6.571-6.359-15.445-9.899-24.706-9.899h-69.803v-67.714c0.171-4.523-0.638-9.045-2.304-13.312-1.662-4.267-4.222-8.107-7.509-11.349-3.243-3.243-7.168-5.844-11.476-7.636-4.311-1.792-8.96-2.69-13.612-2.69-4.649 0-9.301 0.898-13.609 2.69-4.311 1.792-8.192 4.352-11.479 7.636-3.284 3.287-5.803 7.127-7.509 11.349-1.662 4.226-2.475 8.748-2.304 13.312v67.714h-69.844c-4.693-0.13-9.346 0.638-13.698 2.26s-8.363 4.096-11.732 7.253c-3.372 3.157-6.059 6.956-7.851 11.138s-2.775 8.66-2.775 13.227c0 4.564 0.939 9.045 2.775 13.227 1.833 4.181 4.523 7.977 7.851 11.134s7.339 5.632 11.732 7.253c4.352 1.621 9.045 2.389 13.698 2.263h69.803v67.71c0.297 8.789 4.096 17.111 10.622 23.211 6.53 6.103 15.234 9.516 24.279 9.516s17.79-3.413 24.276-9.516c6.53-6.1 10.325-14.421 10.626-23.211v-67.71h69.844c9.26 0 18.135-3.584 24.706-9.899s10.24-14.978 10.24-23.938v-0.085zM930.898 557.824v-338.517c-0.041-44.885-18.473-87.893-51.2-119.593-32.724-31.703-77.056-49.579-123.348-49.623h-488.747c-46.251 0.044-90.624 17.92-123.349 49.623-32.725 31.7-51.115 74.752-51.2 119.593v406.229c0.043 44.885 18.475 87.893 51.2 119.595s77.056 49.579 123.349 49.621h88.233c16.258 0 32.256-3.669 46.807-10.709l110.165-53.632c4.864-2.261 10.196-3.413 15.616-3.413h227.881c46.251-0.043 90.624-17.877 123.351-49.621 32.724-31.744 51.156-74.752 51.2-119.593l0.041 0.041zM162.9 625.493v-33.877h691.84c-7.212 19.712-20.48 36.821-38.103 48.939-17.62 12.117-38.612 18.688-60.201 18.773h-227.97c-16.254 0-32.256 3.669-46.804 10.709l-110.21 53.461c-4.864 2.389-10.196 3.627-15.616 3.712h-88.233c-13.781 0-27.392-2.645-40.107-7.723s-24.277-12.587-34.005-22.059c-9.728-9.429-17.451-20.651-22.699-32.981s-7.936-25.557-7.936-38.912l0.043-0.043zM861.054 219.266v304.681h-698.155v-304.681c0-26.924 11.051-52.78 30.677-71.81s46.293-29.737 74.069-29.737h488.745c27.778 0 54.402 10.708 74.069 29.737 19.671 19.029 30.679 44.885 30.679 71.81h-0.085z" />
<glyph unicode="&#xea4f;" glyph-name="add-security" horiz-adv-x="990" d="M702.228 766.592l-197.356 72.917c-6.475 2.389-13.445 2.389-19.879 0l-197.354-72.917c-31.387-11.563-58.65-33.749-77.993-63.488s-29.737-65.451-29.696-102.059v-178.646c0-264.021 289.782-409.856 302.156-415.915 4.041-1.963 8.373-2.987 12.786-2.987s8.745 1.024 12.786 2.987c12.414 6.059 302.155 151.893 302.155 415.915v178.646c0.044 36.651-10.349 72.363-29.696 102.101-19.343 29.739-46.647 51.925-77.991 63.488l0.041-0.043h0.041zM746.936 422.4c0-190.42-199.004-315.307-251.962-345.214-53.040 29.781-251.961 154.324-251.961 345.214v178.646c0 21.973 6.228 43.392 17.818 61.227s27.964 31.189 46.771 38.144l187.373 69.205 187.334-69.205c18.807-6.955 35.181-20.267 46.769-38.101 11.592-17.835 17.859-39.253 17.859-61.227v-178.688zM589.466 492.203h-63.020v69.847c-0.29 9.045-3.714 17.664-9.568 23.934-5.857 6.274-13.735 9.813-21.903 9.813-8.165 0-16.043-3.54-21.9-9.813-5.857-6.27-9.322-14.889-9.568-23.934v-69.847h-62.983c-8.165-0.297-15.92-4.096-21.61-10.622-5.693-6.53-8.868-15.234-8.868-24.279s3.174-17.79 8.868-24.276c5.69-6.485 13.445-10.325 21.61-10.626h62.983v-69.803c-0.126-4.693 0.577-9.342 2.103-13.694s3.837-8.363 6.765-11.735c2.929-3.369 6.475-6.059 10.353-7.851 3.874-1.792 8.083-2.772 12.288-2.772 4.25 0 8.414 0.939 12.291 2.772 3.878 1.836 7.424 4.523 10.353 7.851s5.239 7.339 6.765 11.735c1.526 4.352 2.225 9.045 2.103 13.694v69.803h63.020c4.209-0.171 8.414 0.642 12.373 2.304 3.959 1.666 7.55 4.226 10.561 7.468 3.052 3.243 5.444 7.168 7.093 11.476 1.649 4.311 2.516 8.96 2.516 13.653s-0.867 9.301-2.516 13.612c-1.649 4.308-4.082 8.192-7.093 11.476-3.052 3.243-6.642 5.803-10.561 7.468-3.919 1.662-8.165 2.475-12.373 2.304l-0.082 0.041z" />
<glyph unicode="&#xea50;" glyph-name="android-menu" d="M250.199 230.4h-87.296c-18.517 0-36.267-7.339-49.365-20.439-13.099-13.097-20.437-30.846-20.437-49.364v-87.296c0-18.517 7.339-36.267 20.437-49.367 13.099-13.097 30.848-20.436 49.365-20.436h87.296c18.517 0 36.267 7.339 49.365 20.436 13.099 13.1 20.437 30.85 20.437 49.367v87.296c0 18.517-7.339 36.267-20.437 49.364-13.099 13.1-30.848 20.439-49.365 20.439zM250.199 73.301h-87.296v87.296h87.296v-87.296zM861.099 230.4h-87.296c-18.517 0-36.267-7.339-49.364-20.439-13.1-13.097-20.439-30.846-20.439-49.364v-87.296c0-18.517 7.339-36.267 20.439-49.367 13.097-13.097 30.846-20.436 49.364-20.436h87.296c18.517 0 36.267 7.339 49.367 20.436 13.097 13.1 20.436 30.85 20.436 49.367v87.296c0 18.517-7.339 36.267-20.436 49.364-13.1 13.1-30.85 20.439-49.367 20.439zM861.099 73.301h-87.296v87.296h87.296v-87.296zM250.199 535.849h-87.296c-18.517 0-36.267-7.339-49.365-20.436-13.099-13.1-20.437-30.85-20.437-49.367v-87.296c0-18.517 7.339-36.267 20.437-49.364 13.099-13.1 30.848-20.439 49.365-20.439h87.296c18.517 0 36.267 7.339 49.365 20.439 13.099 13.097 20.437 30.846 20.437 49.364v87.296c0 18.517-7.339 36.267-20.437 49.367-13.099 13.097-30.848 20.436-49.365 20.436zM250.199 378.75h-87.296v87.296h87.296v-87.296zM861.099 535.849h-87.296c-18.517 0-36.267-7.339-49.364-20.436-13.1-13.1-20.439-30.85-20.439-49.367v-87.296c0-18.517 7.339-36.267 20.439-49.364 13.097-13.1 30.846-20.439 49.364-20.439h87.296c18.517 0 36.267 7.339 49.367 20.439 13.097 13.097 20.436 30.846 20.436 49.364v87.296c0 18.517-7.339 36.267-20.436 49.367-13.1 13.097-30.85 20.436-49.367 20.436zM861.099 378.75h-87.296v87.296h87.296v-87.296zM250.199 841.302h-87.296c-18.517 0-36.267-7.339-49.365-20.437s-20.437-30.848-20.437-49.365v-87.296c0-18.517 7.339-36.267 20.437-49.365s30.848-20.437 49.365-20.437h87.296c18.517 0 36.267 7.339 49.365 20.437s20.437 30.848 20.437 49.365v87.296c0 18.517-7.339 36.267-20.437 49.365s-30.848 20.437-49.365 20.437zM250.199 684.203h-87.296v87.296h87.296v-87.296zM555.65 230.4h-87.296c-18.517 0-36.267-7.339-49.367-20.439-13.097-13.097-20.436-30.846-20.436-49.364v-87.296c0-18.517 7.339-36.267 20.436-49.367 13.1-13.097 30.85-20.436 49.367-20.436h87.296c18.517 0 36.267 7.339 49.364 20.436 13.1 13.1 20.439 30.85 20.439 49.367v87.296c0 18.517-7.339 36.267-20.439 49.364-13.097 13.1-30.846 20.439-49.364 20.439zM555.65 73.301h-87.296v87.296h87.296v-87.296zM555.65 535.849h-87.296c-18.517 0-36.267-7.339-49.367-20.436-13.097-13.1-20.436-30.85-20.436-49.367v-87.296c0-18.517 7.339-36.267 20.436-49.364 13.1-13.1 30.85-20.439 49.367-20.439h87.296c18.517 0 36.267 7.339 49.364 20.439 13.1 13.097 20.439 30.846 20.439 49.364v87.296c0 18.517-7.339 36.267-20.439 49.367-13.097 13.097-30.846 20.436-49.364 20.436zM555.65 378.75h-87.296v87.296h87.296v-87.296zM555.65 841.302h-87.296c-18.517 0-36.267-7.339-49.367-20.437-13.097-13.099-20.436-30.848-20.436-49.365v-87.296c0-18.517 7.339-36.267 20.436-49.365 13.1-13.099 30.85-20.437 49.367-20.437h87.296c18.517 0 36.267 7.339 49.364 20.437 13.1 13.099 20.439 30.848 20.439 49.365v87.296c0 18.517-7.339 36.267-20.439 49.365-13.097 13.099-30.846 20.437-49.364 20.437zM555.65 684.203h-87.296v87.296h87.296v-87.296zM861.099 841.302h-87.296c-18.517 0-36.267-7.339-49.364-20.437-13.1-13.099-20.439-30.848-20.439-49.365v-87.296c0-18.517 7.339-36.267 20.439-49.365 13.097-13.099 30.846-20.437 49.364-20.437h87.296c18.517 0 36.267 7.339 49.367 20.437 13.097 13.099 20.436 30.848 20.436 49.365v87.296c0 18.517-7.339 36.267-20.436 49.365-13.1 13.099-30.85 20.437-49.367 20.437zM861.099 684.203h-87.296v87.296h87.296v-87.296z" />
<glyph unicode="&#xea51;" glyph-name="arrow-filled-down" d="M156.586 701.653h710.698c12.588 0 24.876-4.309 35.328-12.416 10.455-8.107 18.603-19.584 23.426-33.024 4.82-13.44 6.059-28.245 3.625-42.539-2.43-14.293-8.533-27.393-17.408-37.719l-355.284-411.307c-5.888-6.827-12.93-12.244-20.651-15.957-7.724-3.71-16.002-5.588-24.32-5.588-8.322 0-16.64 1.918-24.32 5.588-7.724 3.714-14.722 9.131-20.651 15.957l-355.286 411.307c-8.875 10.284-14.976 23.425-17.408 37.719s-1.195 29.099 3.627 42.539c4.821 13.44 12.971 24.96 23.424 33.024s22.741 12.416 35.328 12.416h-0.128z" />
<glyph unicode="&#xea52;" glyph-name="arrow-filled-left" d="M665.47 22.231l-411.178 355.198c-6.827 5.888-12.245 12.93-15.957 20.61s-5.589 15.998-5.589 24.32c0 8.363 1.92 16.64 5.589 24.32s9.131 14.718 15.957 20.606l411.178 355.2c10.284 8.917 23.381 15.019 37.676 17.493 14.292 2.475 29.099 1.237 42.581-3.584s25.003-12.971 33.109-23.424c8.107-10.453 12.414-22.784 12.414-35.371v-710.398c0.044-12.633-4.267-24.962-12.329-35.458-8.066-10.496-19.586-18.688-33.068-23.511-13.483-4.82-28.331-6.1-42.622-3.625-14.295 2.475-27.436 8.578-37.762 17.493v0.13z" />
<glyph unicode="&#xea53;" glyph-name="arrow-filled-right" d="M232.746 66.987v710.699c0 12.587 4.309 24.875 12.416 35.328s19.584 18.603 33.024 23.424c13.44 4.821 28.245 6.059 42.539 3.627s27.391-8.533 37.716-17.408l411.307-355.285c6.827-5.888 12.247-12.93 15.957-20.651 3.714-7.724 5.591-16.002 5.591-24.32 0-8.322-1.922-16.64-5.591-24.32-3.71-7.724-9.131-14.722-15.957-20.651l-411.307-355.287c-10.281-8.875-23.423-14.974-37.716-17.405-14.293-2.434-29.099-1.198-42.539 3.625-13.44 4.82-24.96 12.971-33.024 23.422-8.064 10.455-12.416 22.743-12.416 35.328v-0.126z" />
<glyph unicode="&#xea54;" glyph-name="arrow-filled-up" d="M867.413 143.145h-710.698c-12.587 0-24.875 4.311-35.328 12.418s-18.603 19.582-23.424 33.024c-4.821 13.438-6.059 28.245-3.627 42.537 2.432 14.295 8.533 27.392 17.408 37.717l355.284 411.308c5.888 6.827 12.93 12.245 20.651 15.957 7.724 3.712 16.002 5.589 24.32 5.589 8.322 0 16.64-1.92 24.32-5.589 7.724-3.712 14.722-9.131 20.651-15.957l355.287-411.308c8.875-10.281 14.974-23.422 17.408-37.717 2.43-14.292 1.195-29.099-3.628-42.537-4.82-13.442-12.971-24.962-23.422-33.024-10.455-8.066-22.743-12.418-35.328-12.418h0.126z" />
<glyph unicode="&#xea55;" glyph-name="arrow-line-down" d="M866.219 347.221c-5.758 6.185-12.629 11.049-20.139 14.421-7.509 3.369-15.616 5.076-23.764 5.076-8.151 0-16.217-1.707-23.767-5.076-7.554-3.372-14.38-8.236-20.139-14.421l-204.329-218.539-0.427 691.115c0.212 8.875-1.239 17.664-4.27 25.899-3.028 8.235-7.55 15.744-13.353 22.101-5.762 6.357-12.67 11.392-20.309 14.805-7.636 3.413-15.831 5.205-24.108 5.205s-16.469-1.792-24.105-5.205c-7.639-3.456-14.551-8.491-20.309-14.805-5.762-6.315-10.325-13.867-13.356-22.101-3.028-8.235-4.478-17.067-4.267-25.899l0.512-691.285-204.329 218.709c-5.76 6.185-12.629 11.049-20.139 14.421-7.509 3.369-15.616 5.076-23.765 5.076s-16.213-1.707-23.765-5.035c-7.552-3.328-14.379-8.233-20.139-14.377-5.76-6.188-10.325-13.483-13.483-21.548-3.157-8.062-4.736-16.681-4.736-25.429 0-8.704 1.621-17.364 4.736-25.426 3.115-8.066 7.68-15.404 13.44-21.548l222.548-237.995c34.901-37.332 82.265-58.324 131.673-58.324s96.724 20.992 131.625 58.324l222.549 238.036c11.65 12.459 18.176 29.314 18.176 46.933 0 17.623-6.526 34.475-18.176 46.933v0.044l-0.085-0.085z" />
<glyph unicode="&#xea56;" glyph-name="arrow-line-left" d="M436.821 68.181c6.185 5.762 11.049 12.629 14.421 20.139 3.369 7.509 5.076 15.616 5.076 23.764 0 8.151-1.707 16.217-5.076 23.767-3.372 7.554-8.236 14.38-14.421 20.139l-218.54 204.329 691.116 0.43c8.875-0.215 17.664 1.236 25.897 4.267 8.236 3.028 15.746 7.55 22.101 13.353 6.359 5.758 11.394 12.674 14.807 20.309s5.205 15.831 5.205 24.108c0 8.277-1.792 16.469-5.205 24.105-3.458 7.639-8.492 14.551-14.807 20.309-6.315 5.762-13.865 10.325-22.101 13.353-8.233 3.031-17.067 4.482-25.897 4.27l-691.287-0.512 218.711 204.329c6.185 5.76 11.049 12.629 14.421 20.139 3.369 7.509 5.076 15.616 5.076 23.765s-1.707 16.213-5.035 23.765c-3.328 7.552-8.233 14.379-14.377 20.139-6.188 5.76-13.483 10.325-21.548 13.483-8.062 3.157-16.681 4.736-25.429 4.736-8.704 0-17.364-1.621-25.429-4.736-8.062-3.115-15.401-7.68-21.545-13.44l-237.996-222.548c-37.333-34.901-58.325-82.265-58.325-131.673s20.992-96.724 58.325-131.625l238.037-222.549c12.459-11.65 29.314-18.176 46.933-18.176 17.623 0 34.475 6.526 46.933 18.176h0.044l-0.085 0.085z" />
<glyph unicode="&#xea57;" glyph-name="arrow-line-right" d="M586.54 776.576c-6.188-5.76-11.093-12.587-14.421-20.139s-5.079-15.616-5.079-23.765c0-8.149 1.707-16.213 5.079-23.765 3.369-7.552 8.233-14.379 14.421-20.139l218.88-204.416-692.396-0.556c-17.621 0-34.56-6.526-47.019-18.176-12.459-11.646-19.456-27.433-19.456-43.902s6.997-32.256 19.456-43.906c12.459-11.646 29.397-18.173 47.019-18.173l692.481 0.423-218.965-204.158c-12.459-11.65-19.456-27.433-19.456-43.906 0-16.469 6.997-32.256 19.456-43.902 12.459-11.65 29.396-18.176 47.019-18.176 17.62 0 34.56 6.526 47.019 18.176l238.462 222.549c18.517 17.282 33.239 37.803 43.264 60.416 10.028 22.613 15.189 46.804 15.189 71.298 0 24.446-5.161 48.681-15.189 71.294-10.025 22.613-24.747 43.138-43.264 60.416l-238.462 222.421c-6.188 5.76-13.483 10.325-21.589 13.44s-16.725 4.736-25.429 4.736c-8.748 0-17.367-1.621-25.429-4.736-8.066-3.115-15.404-7.68-21.589-13.44v0.085z" />
<glyph unicode="&#xea58;" glyph-name="arrow-line-up" d="M157.781 497.579c5.76-6.185 12.629-11.049 20.139-14.421 7.509-3.369 15.616-5.076 23.765-5.076s16.213 1.707 23.765 5.076c7.552 3.372 14.379 8.236 20.139 14.421l204.329 218.539 0.427-691.115c-0.212-8.875 1.239-17.664 4.27-25.897 3.028-8.236 7.55-15.746 13.353-22.101 5.762-6.359 12.67-11.394 20.309-14.807 7.636-3.413 15.831-5.205 24.108-5.205s16.469 1.792 24.105 5.205c7.639 3.458 14.551 8.492 20.309 14.807 5.762 6.315 10.325 13.865 13.356 22.101 3.028 8.233 4.478 17.067 4.267 25.897l-0.512 691.285 204.329-218.709c5.758-6.185 12.629-11.049 20.139-14.421 7.509-3.369 15.616-5.076 23.767-5.076 8.148 0 16.213 1.707 23.764 5.035 7.554 3.328 14.38 8.233 20.139 14.377 5.762 6.188 10.325 13.483 13.483 21.548 3.157 8.062 4.734 16.681 4.734 25.429 0 8.704-1.618 17.364-4.734 25.429-3.113 8.062-7.68 15.401-13.438 21.545l-222.549 237.995c-34.901 37.333-82.265 58.325-131.673 58.325s-96.724-20.992-131.625-58.325l-222.549-238.036c-11.648-12.459-18.176-29.314-18.176-46.933 0-17.623 6.528-34.475 18.176-46.933v-0.044l0.085 0.085z" />
<glyph unicode="&#xea59;" glyph-name="arrow-regular-down" horiz-adv-x="990" d="M882.92 591.49c-5.362 5.417-11.756 9.726-18.767 12.67s-14.52 4.437-22.149 4.437c-7.629 0-15.138-1.493-22.149-4.437s-13.404-7.253-18.767-12.67l-261.199-262.144c-10.974-10.711-29.822-22.101-45.080-22.101-15.261 0-29.904 5.973-40.916 16.681l-265.244 267.605c-10.847 10.965-25.571 17.109-40.914 17.109s-30.067-6.144-40.915-17.109c-10.847-10.964-16.952-25.812-16.952-41.301 0-7.68 1.485-15.275 4.413-22.357s7.177-13.524 12.538-18.944l265.2-267.861c16.128-16.254 35.267-29.184 56.3-38.014 21.036-8.834 43.636-13.356 66.403-13.356 22.808 0 45.37 4.523 66.406 13.356 21.033 8.83 40.172 21.716 56.296 38.014l265.366 267.991c5.362 5.417 9.612 11.861 12.541 18.944s4.413 14.677 4.413 22.357c0 7.68-1.485 15.275-4.413 22.357s-7.178 13.524-12.541 18.944v-0.13l0.126-0.041z" />
<glyph unicode="&#xea5a;" glyph-name="arrow-regular-left" d="M459.558 380.16c-5.417 5.547-9.728 12.158-12.67 19.412-2.946 7.253-4.437 15.019-4.437 22.914 0 7.892 1.492 15.657 4.437 22.91 2.942 7.253 7.253 13.868 12.67 19.415l267.861 274.432c5.42 5.547 9.728 12.16 12.674 19.413 2.942 7.254 4.437 15.019 4.437 22.912s-1.495 15.616-4.437 22.912c-2.946 7.253-7.253 13.867-12.674 19.414-5.417 5.547-11.861 9.941-18.944 12.97-7.083 2.987-14.677 4.566-22.357 4.566s-15.275-1.536-22.357-4.566c-7.083-2.987-13.524-7.424-18.944-12.97l-267.646-274.432c-32.853-33.666-51.328-79.319-51.328-126.891 0-47.575 18.475-93.269 51.328-126.891l267.902-274.517c5.42-5.547 11.861-9.984 18.944-12.971s14.677-4.567 22.357-4.567c7.68 0 15.275 1.536 22.357 4.567 7.083 2.987 13.527 7.424 18.944 12.971 5.42 5.547 9.728 12.158 12.674 19.412 2.942 7.253 4.437 15.019 4.437 22.914 0 7.892-1.495 15.657-4.437 22.91-2.946 7.253-7.253 13.868-12.674 19.415l-268.117 274.347z" />
<glyph unicode="&#xea5b;" glyph-name="arrow-regular-right" d="M691.545 550.953l-267.394 274.775c-11.093 10.368-25.641 15.957-40.619 15.573-14.974-0.384-29.225-6.656-39.806-17.579-10.583-10.923-16.684-25.6-17.025-41.003s5.12-30.336 15.233-41.728l267.179-274.731c10.923-11.223 17.067-26.453 17.067-42.37 0-15.913-6.144-31.102-17.067-42.325l-267.179-274.729c-5.633-5.506-10.156-12.117-13.271-19.456s-4.779-15.234-4.864-23.255c-0.085-8.021 1.365-15.957 4.309-23.381s7.296-14.165 12.8-19.797c5.504-5.632 12.074-10.11 19.287-13.141 7.209-3.028 14.933-4.523 22.74-4.393 7.765 0.126 15.49 1.833 22.613 5.035 7.127 3.198 13.568 7.851 18.903 13.694l267.179 274.732c32.724 33.707 51.115 79.401 51.115 127.017s-18.391 93.314-51.115 127.020l-0.085 0.041z" />
<glyph unicode="&#xea5c;" glyph-name="arrow-regular-up" d="M870.956 217.941c-7.851 0-15.616 1.492-22.914 4.478-7.294 2.987-13.865 7.253-19.412 12.715l-274.432 268.971c-11.349 10.752-26.539 16.725-42.325 16.725s-30.935-6.014-42.325-16.725l-274.391-269.097c-5.547-5.461-12.16-9.772-19.413-12.715-7.254-2.946-15.019-4.482-22.912-4.482-7.85 0-15.616 1.536-22.912 4.482-7.296 2.942-13.867 7.253-19.414 12.715s-9.984 11.902-12.97 19.029c-2.987 7.124-4.566 14.718-4.566 22.443 0 7.721 1.536 15.316 4.566 22.443 2.987 7.124 7.424 13.568 12.97 19.029l274.432 268.971c34.219 32 79.66 49.835 126.976 49.835 47.319 0 92.757-17.835 126.935-49.835l274.432-268.844c8.363-8.192 14.080-18.644 16.384-30.037 2.304-11.39 1.109-23.166-3.413-33.877-4.523-10.708-12.203-19.883-22.060-26.324-9.854-6.444-21.419-9.899-33.236-9.858h-0.13l0.13-0.041z" />
<glyph unicode="&#xea5d;" glyph-name="arrow-small-left" horiz-adv-x="990" d="M362.953 424.192l279.429-289.068c11.964-13.397 18.439-31.102 18.067-49.319-0.372-18.22-7.506-35.628-20.006-48.514-12.455-12.885-29.283-20.309-46.892-20.695-17.613-0.382-34.727 6.315-47.681 18.688l-327.933 338.944c-12.786 13.227-19.962 31.191-19.962 49.923 0 18.729 7.177 36.693 19.962 49.92l327.851 339.241c12.95 12.373 30.068 19.072 47.681 18.688 17.609-0.384 34.437-7.765 46.892-20.693 12.455-12.885 19.633-30.293 20.006-48.512 0.369-18.219-6.106-35.925-18.067-49.323l-279.347-289.28z" />
<glyph unicode="&#xea5e;" glyph-name="arrow-small-right" d="M614.994 424.363l-289.065 289.067c-12.373 13.397-19.072 31.104-18.688 49.323s7.765 35.627 20.693 48.512c12.928 12.885 30.292 20.309 48.512 20.693 18.217 0.384 35.925-6.315 49.323-18.688l339.241-338.946c13.227-13.227 20.651-31.188 20.651-49.92 0-18.729-7.424-36.693-20.651-49.92l-339.156-339.241c-13.397-12.373-31.106-19.074-49.323-18.688-18.22 0.382-35.627 7.765-48.512 20.692-12.885 12.885-20.309 30.293-20.693 48.514-0.384 18.217 6.315 35.925 18.688 49.323l288.98 289.28z" />
<glyph unicode="&#xea5f;" glyph-name="badge" d="M791.255 561.493c0.126 45.184-10.711 89.728-31.618 129.792s-51.241 74.453-88.405 100.224c-37.161 25.771-80.043 42.112-124.928 47.659s-90.453 0.128-132.779-15.829c-42.325-15.957-80.128-41.899-110.208-75.691-30.080-33.749-51.456-74.325-62.336-118.187s-10.965-89.687-0.213-133.589c10.752-43.906 32.043-84.524 61.995-118.357v-286.891c0-16.428 4.651-32.512 13.397-46.421s21.248-25.047 36.096-32.171c14.848-7.127 31.362-9.899 47.701-8.021 16.343 1.877 31.829 8.277 44.629 18.558l56.747 45.356c3.116 2.475 6.956 3.796 10.882 3.796s7.806-1.365 10.878-3.796l56.747-45.356c12.844-10.281 28.331-16.681 44.674-18.558 16.34-1.877 32.853 0.939 47.701 8.021 14.804 7.124 27.307 18.261 36.096 32.171s13.397 29.993 13.397 46.421v286.891c44.926 50.773 69.673 116.18 69.632 183.934l-0.085 0.044zM512 770.901c41.472 0 81.964-12.288 116.439-35.285s61.31-55.723 77.182-93.995c15.872-38.272 20.012-80.384 11.906-121.003s-28.034-77.909-57.344-107.223c-29.314-29.31-66.645-49.237-107.308-57.3-40.66-8.066-82.814-3.925-121.088 11.902-38.27 15.831-71.038 42.667-94.080 77.141-23.040 34.434-35.328 74.923-35.328 116.354 0 55.552 22.101 108.8 61.397 148.053 39.298 39.253 92.631 61.312 148.224 61.312v0.043zM641.922 75.22c-2.946-1.451-6.274-2.048-9.557-1.662-3.287 0.382-6.4 1.662-8.919 3.755l-56.747 45.353c-15.445 12.418-34.686 19.2-54.528 19.2-19.838 0-39.083-6.782-54.528-19.2l-56.917-45.483c-2.56-2.048-5.632-3.369-8.916-3.71-3.287-0.341-6.571 0.171-9.516 1.577-2.987 1.41-5.461 3.628-7.253 6.4-1.792 2.775-2.686 5.973-2.731 9.26v229.588c42.37-24.702 90.583-37.717 139.65-37.717s97.236 13.015 139.646 37.717v-229.547c0.044-3.243-0.853-6.4-2.601-9.172-1.751-2.775-4.181-4.949-7.127-6.315l0.044-0.044z" />
<glyph unicode="&#xea60;" glyph-name="bell" d="M497.9 700.139c17.306-1.762 34.434-4.976 51.2-9.61 47.862-11.696 90.368-39.217 120.631-78.099 30.259-38.881 46.5-86.845 46.087-136.113v-273.763l36.704-36.864h-513.574l36.707 36.864v273.763c-0.419 49.258 15.81 97.212 46.055 136.093 30.244 38.881 72.733 66.408 120.581 78.12 16.828 4.371 33.932 7.582 51.2 9.61zM495.616 855.629c-8.817 0.145-17.575-1.49-25.747-4.807-8.168-3.317-15.589-8.249-21.808-14.5-6.223-6.25-11.121-13.692-14.397-21.879-3.28-8.187-4.874-16.951-4.687-25.768v-31.232c-63.229-15.083-119.535-51.025-159.835-102.028s-62.244-114.095-62.294-179.099v-245.446l-88.694-89.088v-44.623h755.198v44.623l-88.849 89.245v245.289c-0.058 65.024-22.026 128.133-62.358 179.14-40.329 51.006-96.672 86.935-159.928 101.987v31.232c0.184 8.817-1.41 17.581-4.687 25.768-3.28 8.187-8.175 15.628-14.397 21.879s-13.64 11.182-21.811 14.5c-8.172 3.317-16.927 4.952-25.743 4.807h0.038zM584.585 52.381h-177.702c0-23.566 9.359-46.165 26.023-62.829 16.664-16.66 39.264-26.023 62.829-26.023s46.165 9.363 62.826 26.023c16.664 16.664 26.023 39.264 26.023 62.829z" />
<glyph unicode="&#xea61;" glyph-name="filled-exclamatory" d="M963.256 426.738c0-246.825-200.093-446.915-446.915-446.915-246.826 0-446.917 200.090-446.917 446.915s200.091 446.916 446.917 446.916c246.822 0 446.915-200.091 446.915-446.916zM516.362 726.129c-12.663 0-24.812-4.496-33.768-12.5-8.953-8.004-13.984-18.858-13.984-30.177v-341.276c0.406-11.069 5.615-21.562 14.52-29.263 8.909-7.7 20.815-12.005 33.208-12.005 12.39 0 24.3 4.304 33.205 12.005s14.114 18.193 14.524 29.263v341.276c0 11.31-5.024 22.158-13.971 30.161-8.943 8.002-21.077 12.504-33.734 12.516zM516.338 136.028c26.358 0 47.729 21.367 47.729 47.729 0 26.358-21.371 47.729-47.729 47.729-26.361 0-47.729-21.371-47.729-47.729 0-26.361 21.367-47.729 47.729-47.729z" />
<glyph unicode="&#xea62;" glyph-name="filled-info" d="M954.576 426.738c0-246.825-200.090-446.915-446.915-446.915s-446.916 200.090-446.916 446.915c0 246.825 200.091 446.916 446.916 446.916s446.915-200.091 446.915-446.916zM509.635 500.48h-37.253c-4.994 0.167-9.967-0.676-14.63-2.471-4.659-1.799-8.912-4.512-12.503-7.987s-6.444-7.636-8.393-12.237c-1.952-4.598-2.956-9.544-2.956-14.541s1.004-9.94 2.956-14.541c1.949-4.601 4.803-8.762 8.393-12.237 3.591-3.471 7.844-6.188 12.503-7.987 4.663-1.795 9.636-2.639 14.63-2.471h37.253v-223.464c-0.167-4.994 0.676-9.97 2.471-14.63 1.795-4.663 4.512-8.916 7.987-12.506 3.471-3.591 7.632-6.444 12.233-8.397 4.598-1.949 9.544-2.953 14.537-2.953 4.997 0 9.94 1.004 14.541 2.953 4.598 1.952 8.759 4.806 12.23 8.397 3.475 3.591 6.192 7.844 7.987 12.506 1.799 4.659 2.639 9.636 2.475 14.63v223.464c0 19.75-7.847 38.694-21.811 52.661s-32.905 21.811-52.651 21.811zM507.098 579.731c30.839 0 55.842 25.002 55.842 55.843s-25.003 55.842-55.842 55.842c-30.843 0-55.846-25.002-55.846-55.842s25.003-55.843 55.846-55.843z" />
<glyph unicode="&#xea63;" glyph-name="filled-question" d="M954.576 418.062c0-246.825-200.090-446.915-446.915-446.915s-446.916 200.090-446.916 446.915c0 246.824 200.091 446.915 446.916 446.915s446.915-200.091 446.915-446.915zM532.521 667.483c-20.012 3.632-40.578 2.837-60.249-2.33-19.668-5.167-37.956-14.58-53.572-27.572s-28.177-29.247-36.796-47.614c-8.615-18.367-13.080-38.397-13.073-58.672-0.154-4.639 0.631-9.26 2.304-13.588 1.676-4.332 4.209-8.281 7.444-11.616s7.113-5.987 11.401-7.796c4.284-1.812 8.892-2.744 13.548-2.744s9.264 0.932 13.548 2.744c4.287 1.809 8.165 4.461 11.401 7.796s5.769 7.284 7.441 11.616c1.676 4.328 2.461 8.95 2.304 13.588 0.007 10.168 2.263 20.207 6.605 29.406 4.345 9.199 10.667 17.333 18.521 23.818s17.046 11.164 26.924 13.705c9.875 2.541 20.19 2.881 30.211 0.995 13.711-2.648 26.32-9.314 36.212-19.141s16.62-22.371 19.323-36.028c2.734-14.336 0.847-29.167-5.386-42.37-6.236-13.206-16.5-24.105-29.327-31.14-21.231-12.261-38.775-29.972-50.807-51.292-12.032-21.316-18.108-45.459-17.599-69.915v-25.696c-0.154-4.639 0.631-9.26 2.307-13.588 1.673-4.332 4.205-8.281 7.441-11.616s7.113-5.987 11.401-7.799c4.284-1.809 8.892-2.744 13.548-2.744s9.264 0.935 13.548 2.744c4.287 1.812 8.165 4.465 11.401 7.799s5.769 7.284 7.441 11.616c1.676 4.328 2.461 8.95 2.307 13.588v25.696c-0.437 12.035 2.314 23.975 7.974 34.611 5.663 10.639 14.036 19.606 24.279 25.993 25.136 13.769 45.377 34.963 57.941 60.665s16.831 54.651 12.216 82.869c-4.615 28.221-17.886 54.321-37.987 74.716s-46.046 34.083-74.267 39.182l0.075 0.113zM512 140.367c21.569 0 39.052 17.483 39.052 39.052 0 21.565-17.483 39.049-39.052 39.049s-39.052-17.483-39.052-39.049c0-21.569 17.483-39.052 39.052-39.052z" />
<glyph unicode="&#xea64;" glyph-name="search-glow" d="M850.661 24.289l-147.193 147.193c-7.52 7.956-11.639 18.531-11.486 29.478 0.157 10.947 4.574 21.402 12.315 29.143s18.196 12.158 29.143 12.315c10.947 0.154 21.521-3.966 29.478-11.486l147.193-147.193c7.52-7.956 11.639-18.531 11.486-29.478-0.157-10.947-4.574-21.402-12.315-29.143s-18.196-12.158-29.143-12.315c-10.947-0.154-21.521 3.966-29.478 11.486zM102.4 495.561c0 66.543 19.732 131.588 56.7 186.915s89.513 98.449 150.989 123.913c61.476 25.464 129.121 32.127 194.384 19.145s125.211-45.024 172.264-92.076c47.049-47.052 79.094-106.999 92.075-172.263s6.318-132.908-19.145-194.386c-25.463-61.474-68.584-114.019-123.914-150.989-55.327-36.966-120.371-56.699-186.914-56.699-89.201 0.092-174.721 35.57-237.795 98.642-63.074 63.075-98.55 148.596-98.643 237.797v0zM186.51 495.561c0-49.906 14.799-98.69 42.525-140.186s67.135-73.837 113.241-92.935c46.107-19.101 96.843-24.095 145.79-14.36s93.908 33.768 129.198 69.055c35.287 35.29 59.32 80.251 69.055 129.198 9.738 48.947 4.741 99.683-14.36 145.79-19.098 46.106-51.439 85.515-92.935 113.241s-90.279 42.525-140.186 42.525c-66.901-0.062-131.047-26.666-178.355-73.974s-73.912-111.454-73.974-178.355zM298.059 500.705c-0.805-5.646-3.619-10.81-7.926-14.548s-9.818-5.796-15.52-5.796c-5.702 0-11.213 2.058-15.52 5.796s-7.122 8.902-7.926 14.548c0 50.971 20.248 99.853 56.29 135.895 36.041 36.042 84.926 56.29 135.898 56.29 5.642-0.805 10.81-3.618 14.548-7.926 3.734-4.307 5.792-9.818 5.792-15.52s-2.058-11.213-5.792-15.52c-3.738-4.307-8.905-7.121-14.548-7.926-38.537 0-75.493-15.308-102.74-42.556s-42.556-64.204-42.556-102.738z" />
<glyph unicode="&#xea65;" glyph-name="zoom-in" d="M919.296 76.151l-207.746 200.82c56.62 66.939 84.439 152.358 77.739 238.599-6.697 86.243-47.445 166.67-113.749 224.659-66.345 58.031-153.173 89.171-242.603 86.985s-174.548-37.45-237.78-98.616c-63.232-61.124-99.755-143.448-102.016-229.897s29.995-170.421 89.984-234.516c59.989-64.133 143.189-103.482 232.404-109.957 89.218-6.475 177.538 20.415 246.784 75.189l207.831-200.779c3.157-3.424 6.997-6.144 11.305-8.083 4.311-1.939 8.96-2.97 13.698-3.092 4.734-0.123 9.428 0.659 13.824 2.352 4.393 1.69 8.404 4.246 11.732 7.465 3.328 3.215 5.973 7.093 7.724 11.343 1.748 4.246 2.601 8.783 2.43 13.363-0.171 4.577-1.236 9.073-3.198 13.237-2.007 4.168-4.823 7.878-8.363 10.929zM442.324 220.59c-55.081 0-108.927 15.797-154.708 45.37s-81.493 71.642-102.571 120.805c-21.077 49.203-26.581 103.318-15.829 155.532 10.752 52.216 37.248 100.183 76.203 137.84s88.576 63.269 142.593 73.663c54.016 10.394 109.995 5.073 160.894-15.302 50.903-20.375 94.379-54.896 124.972-99.152 30.59-44.255 46.933-96.305 46.933-149.553 0-71.393-29.355-139.858-81.538-190.341-52.18-50.483-123.051-78.862-196.905-78.862h-0.044zM546.731 523.448h-69.588v67.311c0 8.909-3.669 17.488-10.199 23.798-6.526 6.31-15.36 9.857-24.617 9.857-9.26 0-18.091-3.547-24.62-9.857-6.526-6.311-10.196-14.889-10.196-23.798v-67.311h-69.633c-9.216 0-18.091-3.546-24.619-9.858s-10.197-14.889-10.197-23.798c0-8.909 3.669-17.487 10.197-23.798s15.36-9.858 24.619-9.858h69.633v-67.27c0-8.909 3.669-17.487 10.196-23.798 6.53-6.311 15.36-9.858 24.62-9.858 9.216 0 18.091 3.546 24.617 9.858 6.53 6.311 10.199 14.889 10.199 23.798v67.27h69.588c9.216 0 18.091 3.546 24.62 9.858 6.526 6.311 10.196 14.889 10.196 23.798s-3.669 17.487-10.196 23.798c-6.53 6.311-15.404 9.858-24.62 9.858z" />
<glyph unicode="&#xea66;" glyph-name="zoom-out" d="M919.298 64.212l-207.745 207.745c56.617 69.247 84.438 157.611 77.739 246.826-6.698 89.217-47.447 172.417-113.752 232.406-66.345 60.032-153.173 92.245-242.6 89.984-89.431-2.261-174.551-38.741-237.783-102.016-63.232-63.232-99.755-148.395-102.016-237.824s29.994-176.297 89.984-242.603c59.989-66.345 143.189-107.050 232.407-113.749 89.215-6.698 177.533 21.119 246.784 77.782l207.83-207.703c3.157-3.542 6.995-6.356 11.306-8.361 4.308-2.006 8.958-3.072 13.693-3.199 4.739-0.127 9.431 0.681 13.824 2.433 4.396 1.748 8.407 4.393 11.734 7.722 3.33 3.326 5.975 7.337 7.722 11.734 1.751 4.393 2.602 9.085 2.433 13.824-0.169 4.735-1.236 9.385-3.199 13.693-2.006 4.311-4.823 8.15-8.361 11.306zM442.326 213.631c-55.084 0-108.928 16.342-154.709 46.935s-81.493 74.113-102.571 124.97c-21.077 50.9-26.581 106.881-15.829 160.895 10.752 54.017 37.248 103.638 76.203 142.593s88.576 65.451 142.592 76.203c54.014 10.752 109.995 5.248 160.895-15.83 50.903-21.077 94.377-56.789 124.97-102.571s46.935-99.626 46.935-154.71c0-73.855-29.353-144.681-81.535-196.905s-123.053-81.581-196.908-81.581h-0.042zM546.731 526.933h-208.812c-9.216 0-18.091-3.669-24.618-10.198-6.528-6.525-10.198-15.402-10.198-24.618s3.669-18.089 10.198-24.618c6.528-6.529 15.36-10.198 24.618-10.198h208.812c9.216 0 18.089 3.669 24.618 10.198s10.198 15.402 10.198 24.618c0 9.216-3.669 18.093-10.198 24.618-6.529 6.529-15.402 10.198-24.618 10.198z" />
<glyph unicode="&#xea67;" glyph-name="circle-filled-cross" d="M523.65-19.797c237.78 0 430.548 192.768 430.548 430.551 0 237.78-192.768 430.548-430.548 430.548-237.782 0-430.55-192.768-430.55-430.548 0-237.783 192.768-430.551 430.55-430.551zM696.45 583.554c22.74-22.743 22.74-59.563 0-82.261l-90.498-90.498 90.498-90.494c22.74-22.743 22.74-59.563 0-82.306-22.743-22.74-59.563-22.74-82.306 0l-90.494 90.498-90.498-90.498c-22.74-22.74-59.563-22.74-82.261 0-22.697 22.743-22.74 59.563 0 82.306l90.498 90.494-90.498 90.498c-22.74 22.74-22.74 59.563 0 82.261 22.743 22.698 59.563 22.74 82.261 0l90.498-90.498 90.494 90.498c22.743 22.74 59.563 22.74 82.306 0z" />
<glyph unicode="&#xea68;" glyph-name="circle-filled-minus" d="M512 3.499c-231.337 0-418.9 187.563-418.9 418.901s187.563 418.902 418.9 418.902c231.339 0 418.901-187.563 418.901-418.902s-187.563-418.901-418.901-418.901zM325.804 484.482c-34.261 0-62.080-27.778-62.080-62.082s27.776-62.078 62.080-62.078h372.352c34.26 0 62.078 27.774 62.078 62.078s-27.774 62.082-62.078 62.082h-372.352z" />
<glyph unicode="&#xea69;" glyph-name="circle-filled-plus" horiz-adv-x="990" d="M506.194-19.797c229.854 0 416.198 192.768 416.198 430.551 0 237.78-186.344 430.548-416.198 430.548-229.856 0-416.198-192.768-416.198-430.548 0-237.783 186.342-430.551 416.198-430.551zM506.194 655.147c31.058 0 56.259-26.069 56.259-58.197v-127.999h123.733c31.055 0 56.255-26.027 56.255-58.197s-25.16-58.197-56.255-58.197h-123.733v-128c0-32.13-25.16-58.197-56.259-58.197s-56.259 26.027-56.259 58.197v128h-123.733c-31.057 0-56.257 26.027-56.257 58.197s25.2 58.197 56.257 58.197h123.733v127.999c0 32.128 25.16 58.197 56.259 58.197z" />
<glyph unicode="&#xea6a;" glyph-name="circle-filled-tick" d="M523.65-19.797c-237.782 0-430.55 192.768-430.55 430.551 0 237.78 192.768 430.548 430.55 430.548 237.78 0 430.548-192.768 430.548-430.548 0-237.783-192.768-430.551-430.548-430.551zM665.6 558.251l-211.412-211.412-62.679 62.676c-22.74 22.699-59.561 22.699-82.26 0s-22.741-59.563 0-82.302l99.071-99.072c2.263-2.263 4.608-4.267 7.127-6.059 22.825-20.907 58.283-20.309 80.384 1.792l252.075 252.075c22.74 22.74 22.74 59.563 0 82.261-22.743 22.699-59.563 22.74-82.261 0l-0.044 0.041z" />
<glyph unicode="&#xea6b;" glyph-name="circle-minus" d="M512 841.301c-82.859 0-163.84-24.576-232.748-70.613s-122.581-111.445-154.283-187.991c-31.701-76.544-40.021-160.768-23.851-242.046 16.171-81.282 56.064-155.904 114.645-214.487 58.581-58.58 133.249-98.475 214.486-114.644 81.237-16.172 165.502-7.851 242.046 23.849 76.544 31.703 141.954 85.378 187.989 154.283 46.039 68.908 70.615 149.89 70.615 232.748 0 111.104-44.117 217.642-122.709 296.234s-185.132 122.709-296.236 122.709l0.044-0.043zM512 73.301c-69.035 0-136.533 20.48-193.964 58.836-57.429 38.359-102.144 92.887-128.597 156.672-26.453 63.788-33.323 133.973-19.883 201.687 13.483 67.71 46.72 129.92 95.531 178.73s111.018 82.091 178.732 95.531c67.71 13.483 137.899 6.571 201.684-19.883 63.788-26.453 118.316-71.168 156.672-128.597 38.359-57.429 58.839-124.887 58.839-193.962 0-45.824-9.045-91.221-26.583-133.591-17.534-42.366-43.264-80.852-75.691-113.278s-70.912-58.112-113.278-75.691c-42.37-17.579-87.767-26.583-133.591-26.583l0.13 0.13zM686.548 422.4c0-4.567-0.894-9.131-2.645-13.356-1.748-4.222-4.308-8.062-7.55-11.349-3.243-3.243-7.083-5.803-11.349-7.55-4.267-1.751-8.789-2.645-13.356-2.645h-104.745l34.901 36.096c0.171-4.693-0.642-9.346-2.304-13.698-1.666-4.352-4.226-8.363-7.468-11.732-3.243-3.372-7.168-6.059-11.476-7.851-4.311-1.792-8.96-2.775-13.653-2.775s-9.301 0.939-13.612 2.775c-4.308 1.833-8.192 4.523-11.476 7.851-3.243 3.369-5.803 7.339-7.509 11.732-1.707 4.396-2.475 9.045-2.304 13.698l34.901-36.096h-174.551c-4.693-0.171-9.342 0.638-13.694 2.304-4.352 1.662-8.363 4.222-11.735 7.509-3.369 3.243-6.058 7.168-7.85 11.476-1.792 4.311-2.773 8.96-2.773 13.612 0 4.649 0.939 9.301 2.773 13.609 1.835 4.311 4.522 8.236 7.85 11.479s7.339 5.803 11.735 7.509c4.352 1.662 9.045 2.475 13.694 2.304h104.748l-34.901-36.055c-0.171 4.693 0.638 9.346 2.304 13.698 1.662 4.352 4.222 8.363 7.465 11.732 3.243 3.372 7.168 6.059 11.479 7.851 4.308 1.792 8.916 2.775 13.609 2.775s9.346-0.939 13.653-2.775c4.311-1.833 8.192-4.478 11.479-7.851 3.284-3.369 5.803-7.339 7.509-11.732 1.707-4.396 2.475-9.045 2.304-13.698l-34.946 36.055 174.551 0.041c4.564 0 9.131-0.894 13.353-2.645 4.226-1.748 8.066-4.308 11.349-7.55 3.243-3.243 5.803-7.083 7.554-11.349 1.748-4.267 2.645-8.789 2.645-13.356l0.041-0.041z" />
<glyph unicode="&#xea6c;" glyph-name="circle-plus" d="M512 841.302c-82.859 0-163.84-24.576-232.748-70.613s-122.581-111.445-154.283-187.988c-31.701-76.544-40.021-160.768-23.851-242.050 16.171-81.278 56.064-155.904 114.645-214.484 58.581-58.583 133.249-98.475 214.486-114.647 81.237-16.169 165.502-7.851 242.046 23.852 76.544 31.7 141.954 85.374 187.989 154.283 46.039 68.905 70.615 149.886 70.615 232.745 0 111.104-44.117 217.643-122.709 296.193s-185.132 122.709-296.236 122.709h0.044zM512 73.301c-69.035 0-136.533 20.48-193.964 58.839-57.429 38.356-102.144 92.884-128.597 156.672-26.453 63.785-33.323 133.973-19.883 201.684 13.483 67.714 46.72 129.921 95.531 178.731s111.018 82.091 178.732 95.531c67.71 13.483 137.899 6.571 201.684-19.883 63.788-26.453 118.316-71.168 156.672-128.597 38.359-57.43 58.839-124.884 58.839-193.963 0-45.824-9.045-91.262-26.583-133.588-17.534-42.325-43.264-80.855-75.691-113.282s-70.912-58.112-113.278-75.691c-42.37-17.534-87.767-26.58-133.591-26.58l0.13 0.126zM686.548 422.4c0-4.564-0.894-9.131-2.645-13.353-1.748-4.226-4.308-8.107-7.55-11.349s-7.083-5.803-11.349-7.554c-4.267-1.748-8.789-2.645-13.356-2.645h-104.745v-104.745c0.171-4.693-0.642-9.346-2.304-13.698-1.666-4.352-4.226-8.363-7.509-11.732-3.287-3.372-7.168-6.059-11.479-7.851-4.308-1.836-8.96-2.775-13.609-2.775-4.652 0-9.301 0.939-13.612 2.775-4.308 1.833-8.233 4.523-11.476 7.851s-5.803 7.339-7.509 11.732c-1.707 4.396-2.475 9.045-2.304 13.698v104.745h-104.748c-4.693-0.171-9.342 0.642-13.694 2.304-4.352 1.666-8.363 4.226-11.735 7.509-3.369 3.243-6.058 7.168-7.85 11.479-1.792 4.308-2.773 8.96-2.773 13.609 0 4.652 0.939 9.301 2.773 13.612 1.835 4.308 4.522 8.192 7.85 11.476 3.328 3.287 7.339 5.803 11.735 7.509 4.352 1.666 9.045 2.475 13.694 2.304h104.748v104.748c-0.171 4.693 0.638 9.342 2.304 13.694 1.662 4.352 4.222 8.363 7.509 11.735 3.243 3.369 7.168 6.058 11.476 7.85 4.311 1.792 8.96 2.773 13.612 2.773 4.649 0 9.301-0.939 13.609-2.773 4.311-1.835 8.192-4.522 11.479-7.85 3.284-3.328 5.803-7.339 7.509-11.735 1.662-4.352 2.475-9.045 2.304-13.694v-104.748h104.745c4.567 0 9.131-0.894 13.356-2.645 4.222-1.748 8.062-4.308 11.349-7.55 3.243-3.243 5.803-7.083 7.55-11.349 1.751-4.267 2.645-8.789 2.645-13.356z" />
<glyph unicode="&#xea6d;" glyph-name="clip" horiz-adv-x="990" d="M889.521 504.788c-3.26 3.243-7.137 5.847-11.383 7.639-4.25 1.792-8.827 2.686-13.489 2.686-4.659 0-9.196-0.894-13.486-2.686-4.25-1.751-8.124-4.352-11.383-7.639l-381.594-381.525c-16.292-16.213-35.594-29.054-56.876-37.803-21.282-8.745-44.049-13.268-67.063-13.268s-45.823 4.523-67.063 13.268c-21.241 8.748-40.585 21.634-56.876 37.803-32.872 32.727-51.35 77.1-51.35 123.351s18.477 90.624 51.308 123.348l369.756 369.494c9.735 9.856 21.323 17.707 34.109 23.125s26.522 8.192 40.421 8.235c13.899 0.085 27.675-2.603 40.503-7.851 12.824-5.248 24.538-13.013 34.355-22.784s17.613-21.376 22.89-34.176c5.28-12.8 7.96-26.496 7.919-40.32-0.082-13.824-2.888-27.52-8.288-40.235-5.403-12.715-13.281-24.277-23.221-33.964l-369.715-369.493c-6.683-6.4-15.592-9.984-24.872-9.984s-18.189 3.584-24.87 9.984c-3.3 3.243-5.898 7.083-7.671 11.349s-2.681 8.789-2.681 13.397c0 4.608 0.907 9.175 2.681 13.397 1.774 4.267 4.372 8.107 7.671 11.349l329.212 329.132c6.601 6.571 10.312 15.445 10.312 24.747s-3.71 18.176-10.312 24.747c-6.598 6.571-15.548 10.24-24.87 10.24s-18.272-3.669-24.87-10.24l-328.925-329.473c-9.775-9.728-17.529-21.248-22.808-33.963s-8.002-26.324-8.002-40.062c0-13.739 2.722-27.351 8.002-40.066s13.033-24.235 22.808-33.963c20.045-19.029 46.647-29.652 74.364-29.652 27.715 0 54.318 10.622 74.365 29.652l369.715 369.538c16.579 16.128 29.778 35.369 38.851 56.618 9.076 21.248 13.776 44.075 13.899 67.157 0.126 23.083-4.328 45.952-13.155 67.285s-21.777 40.747-38.192 57.045c-16.418 16.299-35.884 29.227-57.33 38.016-21.449 8.747-44.421 13.227-67.601 13.099s-46.111-4.864-67.434-13.867c-21.323-9.003-40.666-22.144-56.876-38.656l-369.716-369.493c-45.534-45.909-70.982-107.861-70.775-172.373s26.025-126.293 71.848-171.906c45.823-45.609 107.937-71.339 172.732-71.509s127.075 25.132 173.185 70.444l381.757 381.355c3.301 3.243 5.898 7.083 7.673 11.349 1.772 4.267 2.679 8.789 2.679 13.397s-0.908 9.172-2.679 13.397c-1.775 4.267-4.372 8.107-7.673 11.349l0.085-0.044z" />
<glyph unicode="&#xea6e;" glyph-name="clock" d="M512 841.302c-82.859 0-163.84-24.576-232.748-70.613s-122.581-111.445-154.283-187.988c-31.701-76.544-40.021-160.768-23.851-242.050 16.171-81.278 56.064-155.904 114.645-214.484 58.581-58.583 133.249-98.475 214.486-114.647 81.237-16.169 165.502-7.851 242.046 23.852 76.544 31.7 141.954 85.374 187.989 154.283 46.039 68.905 70.615 149.886 70.615 232.745 0 111.104-44.117 217.643-122.709 296.193s-185.132 122.709-296.236 122.709h0.044zM512 73.301c-69.035 0-136.533 20.48-193.964 58.839-57.429 38.356-102.144 92.884-128.597 156.672-26.453 63.785-33.323 133.973-19.883 201.684 13.483 67.714 46.72 129.921 95.531 178.731s111.018 82.091 178.732 95.531c67.71 13.483 137.899 6.571 201.684-19.883 63.788-26.453 118.316-71.168 156.672-128.597 38.359-57.43 58.839-124.884 58.839-193.963 0-45.824-9.045-91.262-26.583-133.588-17.534-42.325-43.264-80.855-75.691-113.282s-70.912-58.112-113.278-75.691c-42.37-17.534-87.767-26.58-133.591-26.58l0.13 0.126zM512 631.85c-9.257 0-18.132-3.669-24.702-10.24s-10.24-15.445-10.24-24.704v-150.998l-117.675-73.728c-4.055-2.345-7.639-5.502-10.455-9.257s-4.864-8.021-6.014-12.588c-1.154-4.564-1.365-9.301-0.597-13.95 0.768-4.652 2.389-9.090 4.864-13.056 2.475-3.97 5.758-7.424 9.598-10.114 3.84-2.686 8.192-4.608 12.8-5.547 4.608-0.98 9.346-1.024 13.954-0.126 4.608 0.894 9.001 2.731 12.885 5.332l134.059 83.797c5.076 3.157 9.216 7.595 12.073 12.844 2.86 5.246 4.352 11.134 4.267 17.108v170.326c0 9.259-3.669 18.133-10.196 24.661-6.53 6.528-15.404 10.24-24.661 10.24h0.041z" />
<glyph unicode="&#xea6f;" glyph-name="cloud" d="M714.581 584.96c-15.486 64.767-54.996 121.77-111.019 160.127-56.020 38.357-124.587 55.424-192.724 47.957-68.14-7.467-131.030-38.997-176.769-88.533s-71.083-113.663-71.253-180.138c-0.043-43.308 10.752-86.016 31.445-124.375-37.675-19.582-67.499-50.859-84.779-88.788-17.28-37.932-20.992-80.384-10.539-120.576s34.432-75.861 68.181-101.335c33.749-25.47 75.264-39.294 118.016-39.253h366.89c68.567 0.13 134.7 24.706 185.815 69.035 51.115 44.332 83.627 105.346 91.348 171.435 7.724 66.092-9.854 132.608-49.408 186.924-39.55 54.313-98.345 92.628-165.12 107.646v-0.126h-0.085zM651.947 117.801h-366.89c-29.739-0.085-58.496 10.37-80.853 29.44-22.357 19.074-36.736 45.356-40.491 73.984-3.755 28.631 3.456 57.6 20.181 81.452 16.725 23.849 41.899 40.96 70.741 48.043 5.547 1.365 10.667 4.052 14.848 7.806s7.424 8.448 9.344 13.653c1.92 5.25 2.475 10.837 1.621 16.299s-3.072 10.711-6.485 15.148c-18.901 24.917-31.701 53.675-37.419 84.094-5.717 30.423-4.139 61.696 4.523 91.477 8.661 29.739 24.235 57.217 45.525 80.214s47.701 41.045 77.227 52.651c29.566 11.605 61.44 16.555 93.269 14.379s62.676-11.349 90.283-26.837c27.604-15.488 51.156-36.907 68.949-62.592 17.79-25.685 29.225-54.954 33.577-85.588 0.983-7.383 4.482-14.251 9.899-19.5 5.42-5.246 12.459-8.66 20.098-9.643 52.35-7.209 100.011-33.365 133.332-73.216 33.324-39.851 49.879-90.409 46.336-141.609-3.54-51.2-26.88-99.202-65.365-134.359s-89.3-54.955-142.165-55.337l-0.041 0.041h-0.044z" />
<glyph unicode="&#xea70;" glyph-name="cloud-cancel" d="M853.163 99.584c44.544 43.093 71.765 100.352 76.759 161.41 5.246 61.908-11.349 123.733-47.019 175.145-35.669 51.415-88.32 89.303-149.077 107.349-5.973 1.836-11.394 5.079-15.787 9.431-4.396 4.352-7.595 9.728-9.387 15.616-13.783 44.201-38.871 84.222-72.875 116.265-34.007 32.043-75.776 55.125-121.429 66.987s-93.611 12.16-139.435 0.811c-45.824-11.349-87.851-33.877-122.24-65.536l-99.84 97.664c-3.243 3.2-7.125 5.717-11.349 7.424s-8.789 2.603-13.397 2.603c-4.608 0-9.131-0.896-13.397-2.603s-8.107-4.224-11.349-7.424c-3.243-3.2-5.845-6.955-7.595-11.093s-2.645-8.619-2.645-13.099c0-4.48 0.896-8.96 2.645-13.099s4.352-7.936 7.595-11.093l767.702-750.718c6.571-6.444 15.486-10.028 24.747-10.028 9.257 0 18.176 3.628 24.747 10.028s10.24 15.145 10.24 24.19c0 9.090-3.714 17.794-10.24 24.194l-67.372 65.577zM410.754 690.133c49.493 7.339 100.052-2.944 142.462-28.971s73.858-66.091 88.661-112.852c5.164-16.469 14.336-31.447 26.795-43.65s27.733-21.248 44.544-26.368c45.568-13.568 85.036-41.984 111.787-80.555 26.754-38.571 39.168-84.948 35.202-131.369-3.628-44.8-23.808-86.743-56.791-118.016l-501.417 490.494c30.251 27.264 68.095 45.099 108.758 51.285zM686.124 49.664c0.98-9.001-1.751-18.005-7.554-25.044-5.803-7.042-14.206-11.52-23.422-12.503-15.319-1.621-30.679-2.389-46.080-2.389h-317.483c-46.507 0.768-91.307 17.111-127.019 46.251-35.712 29.143-60.16 69.335-69.291 113.964-5.973 38.4 0.512 77.694 18.56 112.34s46.72 62.85 82.005 80.725c-27.904 49.879-38.443 107.308-29.952 163.543 1.28 8.96 6.144 17.067 13.568 22.528s16.683 7.806 25.856 6.526c9.173-1.28 17.451-6.014 22.997-13.268s7.979-16.343 6.699-25.303c-6.187-41.899 1.152-84.692 20.949-122.324 8.747-15.831 10.752-34.389 5.589-51.627s-17.109-31.829-33.195-40.533c-22.443-11.394-40.704-29.355-52.139-51.415-11.435-22.057-15.573-47.060-11.733-71.509 6.485-28.416 22.571-53.886 45.611-72.277 23.040-18.388 51.755-28.757 81.536-29.31h317.481c12.885 0 25.771 0.638 38.615 2.004 9.216 0.898 18.388-1.748 25.6-7.424 7.209-5.673 11.817-13.909 12.885-22.91h-0.044l-0.041-0.044z" />
<glyph unicode="&#xea71;" glyph-name="cloud-download" horiz-adv-x="990" d="M722.517 168.875c2.97-3.157 5.239-6.868 6.683-10.882 1.444-4.011 2.103-8.274 1.857-12.541-0.249-4.267-1.362-8.407-3.301-12.247s-4.618-7.253-7.96-10.11l-53.494-45.954c-9.158-8.704-20.047-15.575-31.966-20.265-11.919-4.697-24.747-7.001-37.615-6.915-13.363-0.041-26.644 2.475-38.977 7.383-12.329 4.905-23.59 12.076-33.034 21.163l-52.094 44.503c-3.297 2.816-6.021 6.27-7.919 10.069-1.894 3.796-3.052 7.977-3.297 12.244-0.249 4.267 0.372 8.492 1.812 12.503 1.444 4.007 3.714 7.721 6.683 10.878s6.516 5.758 10.516 7.595c4 1.836 8.332 2.942 12.745 3.198s8.868-0.338 13.032-1.748c4.168-1.406 8.045-3.584 11.343-6.4l45.039-38.656v241.196c0 8.574 3.546 16.807 9.899 22.91s14.889 9.472 23.839 9.472c8.95 0 17.531-3.413 23.842-9.472 6.308-6.059 9.899-14.292 9.899-22.91v-241.026l45.039 38.571c6.68 5.717 15.425 8.663 24.375 8.148 8.95-0.509 17.282-4.352 23.221-10.752l-0.041-0.041-0.126 0.085zM709.362 588.971c-5.775 1.751-11.056 4.821-15.302 8.96-4.25 4.139-7.383 9.259-9.073 14.848-17.862 55.040-54.361 102.784-103.69 135.68s-108.681 49.067-168.649 45.909c-59.969-3.115-117.175-25.387-162.461-63.232s-76.178-89.088-87.727-145.664c-11.837-57.218-2.227-116.61 27.056-167.721-34.15-16.899-61.908-43.65-79.395-76.459-17.488-32.812-23.798-70.103-18.106-106.54 8.785-42.37 32.418-80.51 66.94-108.203s77.869-43.179 122.867-43.947h78.159c8.95 0 17.527 3.413 23.839 9.472s9.899 14.295 9.899 22.91c0 8.622-3.546 16.814-9.899 22.914-6.311 6.059-14.889 9.472-23.839 9.472h-78.159c-28.83 0.512-56.587 10.325-78.901 27.863-22.313 17.534-37.821 41.725-44.090 68.69-3.671 23.211 0.33 46.933 11.425 67.84 11.095 20.91 28.747 37.977 50.442 48.77 15.467 8.192 26.933 21.931 31.965 38.185 5.032 16.258 3.134 33.795-5.197 48.729-13.239 23.975-21.117 50.388-23.097 77.479-1.98 27.095 1.98 54.272 11.631 79.788s24.747 48.811 44.379 68.395 43.265 34.987 69.455 45.227c26.191 10.24 54.361 15.147 82.613 14.293s56.054-7.339 81.582-19.072c25.491-11.776 48.131-28.501 66.485-49.195 18.357-20.693 31.966-44.8 39.967-70.869 4.99-15.657 13.858-29.911 25.904-41.516 12.042-11.605 26.808-20.224 43.1-25.044 44.090-12.885 82.2-39.851 108.059-76.414 25.859-36.567 37.861-80.599 34.028-124.631-2.516-34.263-15.592-67.028-37.492-94.208-5.072-6.827-7.178-15.275-5.857-23.596 1.321-8.318 5.898-15.787 12.827-20.907s15.633-7.421 24.334-6.526c8.663 0.939 16.664 5.076 22.231 11.52 29.737 37.205 47.555 81.879 51.268 128.597 5.113 58.754-10.929 117.374-45.452 166.144-34.522 48.766-85.378 84.692-144.148 101.844v0.13l0.082 0.085z" />
<glyph unicode="&#xea72;" glyph-name="cloud-share" d="M826.194 244.224c-27.006-0.085-52.992-9.858-72.363-27.351l-103.424 48.087c0.683 3.881 1.154 7.806 1.28 11.776-0.171 3.925-0.597 7.851-1.28 11.776l103.339 47.913c17.408-15.445 40.021-24.873 64.044-26.624 24.020-1.748 47.957 4.226 67.755 16.94s34.26 31.403 40.916 52.862c6.656 21.463 5.12 44.418-4.352 64.939-9.472 20.524-26.324 37.42-47.657 47.746-21.378 10.366-45.909 13.524-69.506 9.001-23.593-4.523-44.8-16.425-59.989-33.792-15.189-17.323-23.467-38.997-23.422-61.355 0.171-3.925 0.597-7.851 1.28-11.776l-103.339-47.787c-14.763 13.271-33.451 22.187-53.634 25.685-20.18 3.499-41.086 1.365-59.989-6.059-18.9-7.424-35.072-19.883-46.421-35.796-11.349-15.916-17.408-34.56-17.408-53.589s6.059-37.717 17.408-53.634c11.349-15.913 27.477-28.331 46.421-35.796 18.944-7.468 39.81-9.557 59.989-6.059 20.224 3.499 38.871 12.414 53.634 25.685l103.339-47.916c-0.683-3.881-1.109-7.806-1.28-11.776-0.044-19.2 6.059-38.014 17.534-54.016 11.479-15.998 27.819-28.501 46.933-35.881 19.115-7.383 40.192-9.346 60.501-5.632 20.309 3.71 38.997 12.926 53.675 26.494s24.661 30.891 28.716 49.708c4.052 18.814 2.004 38.356-5.932 56.149-7.892 17.749-21.333 32.939-38.571 43.605s-37.461 16.384-58.197 16.384v0.085zM826.194 438.484c6.912 0 13.653-1.877 19.371-5.461s10.199-8.619 12.844-14.507c2.645-5.929 3.328-12.414 1.963-18.688-1.365-6.27-4.652-12.032-9.557-16.555-4.864-4.523-11.093-7.595-17.879-8.83-6.782-1.239-13.78-0.597-20.139 1.833-6.356 2.434-11.817 6.615-15.657 11.906s-5.888 11.561-5.888 17.961c0 8.578 3.669 16.811 10.196 22.869 6.53 6.059 15.404 9.472 24.661 9.472h0.085zM546.983 244.224c-6.912 0-13.653 1.877-19.371 5.461s-10.196 8.619-12.841 14.507c-2.645 5.929-3.328 12.414-2.007 18.688 1.324 6.27 4.652 12.032 9.557 16.555 4.864 4.523 11.093 7.595 17.879 8.875 6.782 1.28 13.78 0.597 20.139-1.836 6.356-2.43 11.817-6.612 15.657-11.902s5.888-11.564 5.888-17.964c0-8.574-3.669-16.811-10.196-22.869-6.53-6.059-15.404-9.472-24.661-9.472l-0.044-0.041zM826.194 114.729c-6.912 0-13.653 1.922-19.371 5.461-5.717 3.543-10.196 8.619-12.841 14.507-2.645 5.932-3.328 12.418-2.007 18.688 1.324 6.274 4.652 12.032 9.557 16.555 4.864 4.523 11.093 7.595 17.879 8.834 6.782 1.236 13.78 0.597 20.139-1.836 6.356-2.43 11.817-6.612 15.657-11.902s5.888-11.564 5.888-17.964c-0.041-8.574-3.71-16.766-10.24-22.825-6.526-6.059-15.401-9.431-24.617-9.431v-0.126l-0.044 0.041zM512.082 114.729c0-8.574-3.669-16.811-10.196-22.869-6.53-6.059-15.404-9.472-24.661-9.472h-185.942c-46.507 0.812-91.307 16.384-126.976 44.076-35.669 27.689-60.032 65.877-69.077 108.158-5.931 36.437 0.597 73.687 18.688 106.496 18.091 32.812 46.805 59.522 82.133 76.418-30.293 51.115-40.192 110.462-27.904 167.68 11.861 56.618 43.819 107.946 90.709 145.834s106.111 60.16 168.234 63.317c62.123 3.115 123.563-13.056 174.636-45.995 51.070-32.939 88.788-80.768 107.22-135.851 1.751-5.589 4.994-10.667 9.387-14.848 4.396-4.181 9.858-7.253 15.831-8.959 4.393-1.28 8.448-3.328 11.988-6.059 3.543-2.731 6.444-6.059 8.578-9.858 2.133-3.755 3.454-7.892 3.84-12.117 0.382-4.222-0.085-8.533-1.451-12.585-1.365-4.055-3.584-7.851-6.53-11.093-2.942-3.243-6.526-5.973-10.622-7.936-4.055-1.963-8.533-3.202-13.1-3.584-4.564-0.386-9.172 0.085-13.568 1.321-16.811 4.864-32.126 13.442-44.544 25.047-12.414 11.605-21.63 25.812-26.795 41.429-8.318 25.984-22.443 50.091-41.428 70.699-18.988 20.608-42.411 37.333-68.779 49.067s-55.084 18.219-84.309 19.029c-29.228 0.811-58.327-4.053-85.378-14.293s-51.54-25.643-71.807-45.184-35.925-42.795-45.909-68.267c-9.984-25.473-14.123-52.609-12.117-79.701 2.005-27.051 10.069-53.419 23.723-77.397 8.661-14.978 10.581-32.471 5.419-48.725-5.163-16.258-17.067-29.996-33.067-38.229-22.485-10.796-40.747-27.819-52.224-48.725s-15.616-44.629-11.819-67.84c6.443-26.965 22.485-51.115 45.525-68.608s51.712-27.307 81.493-27.863h185.727c4.608 0.044 9.175-0.768 13.442-2.389s8.148-4.011 11.39-6.997c3.243-2.987 5.847-6.571 7.639-10.537 1.748-3.97 2.686-8.192 2.686-12.459l-0.085-0.13z" />
<glyph unicode="&#xea73;" glyph-name="cloud-upload" d="M735.447 579.912c-6.274 1.65-11.991 4.661-16.64 8.744-4.652 4.083-8.107 9.156-10.028 14.766-10.667 32.377-28.587 62.485-52.692 88.469-24.108 25.984-53.804 47.39-87.426 62.815-33.577 15.426-70.356 24.623-108.032 27.015-37.673 2.392-75.52-2.103-111.23-13.157-35.713-11.053-68.524-28.459-96.47-51.184s-50.432-50.277-66.133-80.963c-15.701-30.686-24.235-63.929-25.131-97.666s5.888-67.311 19.968-98.615c3.243-6.601 3.968-13.984 2.005-20.995s-6.443-13.24-12.8-17.695c-27.819-18.394-49.579-43.182-62.933-71.765-13.355-28.58-17.792-59.802-12.885-90.406 7.723-41.37 31.787-78.944 67.84-105.834s81.707-41.329 128.64-40.748h185.599c9.26 0 18.135 3.297 24.706 9.114s10.24 13.776 10.24 22.026c0 4.082-0.898 8.165-2.645 11.919-1.751 3.751-4.311 7.216-7.554 10.103s-7.083 5.199-11.349 6.765c-4.267 1.567-8.789 2.348-13.353 2.348h-185.601c-30.165-0.659-59.563 8.373-82.944 25.409-23.381 17.033-39.083 40.998-44.373 67.516-3.371 19.511-0.683 39.513 7.808 57.743s22.4 34.068 40.235 45.739c18.688 12.5 32.256 30.191 38.485 50.278 6.229 20.084 4.864 41.492-3.968 60.795-17.493 41.325-18.432 86.777-2.603 128.641 12.715 32.789 35.413 61.743 65.579 83.602s66.559 35.759 105.13 40.090c8.96 0.949 17.964 1.443 26.965 1.443 45.141 0.124 89.132-12.786 125.355-36.873 36.226-24.087 62.764-57.949 75.605-96.636 4.994-14.724 14.039-28.128 26.283-38.976 12.247-10.848 27.307-18.807 43.861-23.139 40.492-10.68 76.332-32.171 102.786-61.577 26.453-29.409 42.196-65.331 45.141-102.946 2.942-37.615-7.042-75.148-28.587-107.568-21.548-32.416-53.719-58.153-92.16-73.786-5.676-2.598-10.411-6.598-13.698-11.506-3.284-4.908-4.949-10.516-4.864-16.21-0.041-5.154 1.324-10.226 4.055-14.807 2.731-4.577 6.656-8.414 11.476-11.257 4.823-2.847 10.37-4.581 16.128-4.99 5.762-0.413 11.52 0.41 16.811 2.516 144.343 61.99 222.764 224.986 100.523 382.502-33.621 39.264-81.323 67.021-135.083 78.734v0.082l-0.041 0.124zM746.24 333.107l-104.745 93.542c-3.243 2.929-7.083 5.236-11.349 6.803-4.267 1.57-8.789 2.393-13.397 2.393s-9.175-0.823-13.397-2.393c-4.226-1.567-8.107-3.874-11.349-6.803l-104.748-93.542c-3.243-2.888-5.844-6.352-7.595-10.148-1.748-3.796-2.686-7.878-2.686-11.96 0-4.123 0.894-8.168 2.686-11.96 1.792-3.796 4.352-7.26 7.595-10.148s7.127-5.195 11.349-6.762c4.226-1.57 8.789-2.393 13.397-2.393s9.131 0.823 13.397 2.393c4.267 1.567 8.107 3.874 11.349 6.762l45.056 40.298v-236.578c0.3-8.086 4.096-15.756 10.626-21.408 6.526-5.649 15.23-8.783 24.276-8.783s17.794 3.133 24.279 8.783c6.526 5.652 10.325 13.281 10.622 21.408v236.66l45.397-40.298c3.243-2.884 7.127-5.195 11.349-6.762 4.226-1.567 8.789-2.393 13.397-2.393s9.131 0.826 13.397 2.393c4.267 1.567 8.107 3.878 11.349 6.762 3.243 2.888 5.847 6.352 7.595 10.148 1.751 3.796 2.645 7.878 2.645 11.96s-0.894 8.168-2.645 11.96c-1.748 3.796-4.352 7.26-7.595 10.148l-0.297-0.082h0.041z" />
<glyph unicode="&#xea74;" glyph-name="code" d="M620.544 747.179c20.139-7.253 30.59-29.483 23.296-49.621l-204.332-566.356c-7.253-20.139-29.481-30.594-49.62-23.296-20.139 7.294-30.594 29.481-23.296 49.62l204.329 566.358c7.253 20.139 29.484 30.592 49.623 23.296zM895.659 402.603c-13.612-16.51-38.059-18.859-54.572-5.246l-153.6 126.59c-16.51 13.612-18.859 38.059-5.246 54.572 13.609 16.511 38.059 18.857 54.569 5.246l153.6-126.59c16.514-13.612 18.859-38.059 5.25-54.572zM118.827 451.413c13.995 16.213 38.485 18.005 54.699 4.011l150.613-130.092c16.213-13.995 18.007-38.485 4.011-54.699s-38.485-18.005-54.699-4.011l-150.613 130.092c-16.213 13.995-18.005 38.485-4.011 54.699zM896.939 446.379c13.824-16.343 11.82-40.789-4.523-54.658l-151.893-128.597c-16.34-13.824-40.789-11.817-54.654 4.523-13.868 16.343-11.82 40.789 4.523 54.658l151.893 128.597c16.34 13.824 40.789 11.817 54.654-4.523zM116.524 407.678c-13.44 16.64-10.88 41.090 5.803 54.528l154.837 125.058c16.64 13.439 41.088 10.879 54.528-5.803 13.44-16.684 10.88-41.090-5.803-54.528l-154.837-125.058c-16.64-13.438-41.088-10.878-54.528 5.803z" />
<glyph unicode="&#xea75;" glyph-name="copy" d="M616.701 152.457h-349.097c-46.251 0.041-90.624 17.859-123.349 49.493-32.725 31.631-51.115 74.486-51.2 119.235v337.464c0.043 44.709 18.475 87.603 51.2 119.238s77.056 49.411 123.349 49.493h349.097c46.251-0.041 90.624-17.859 123.351-49.493 32.724-31.634 51.115-74.487 51.2-119.238v-337.464c-0.044-44.708-18.476-87.603-51.2-119.235-32.727-31.635-77.056-49.411-123.351-49.493zM267.604 759.862c-27.776 0-54.4-10.682-74.069-29.655s-30.677-44.75-30.677-71.6v-337.463c0-26.849 11.051-52.586 30.677-71.598 19.627-19.016 46.293-29.655 74.069-29.655h349.097c27.778 0 54.402 10.68 74.069 29.655 19.671 18.971 30.679 44.749 30.679 71.598v337.463c0 26.85-11.052 52.587-30.679 71.6s-46.292 29.655-74.069 29.655h-349.097zM930.898 186.194v438.675c0.171 4.537-0.638 9.032-2.304 13.239-1.662 4.207-4.222 8.084-7.509 11.342-3.243 3.258-7.168 5.857-11.476 7.589-4.311 1.732-8.96 2.681-13.653 2.681s-9.301-0.907-13.612-2.681c-4.308-1.774-8.192-4.372-11.476-7.589-3.243-3.258-5.803-7.094-7.468-11.342-1.662-4.248-2.475-8.744-2.304-13.239v-438.675c0-26.853-11.049-52.589-30.676-71.601s-46.295-29.655-74.069-29.655h-453.803c-4.693 0.164-9.344-0.618-13.696-2.225-4.352-1.611-8.363-4.086-11.733-7.219s-6.059-6.929-7.851-11.093c-1.792-4.168-2.773-8.663-2.773-13.158 0-4.536 0.939-8.991 2.773-13.199 1.835-4.205 4.523-7.919 7.851-11.093 3.371-3.133 7.339-5.608 11.733-7.26 4.395-1.649 9.045-2.393 13.696-2.225h453.803c46.251 0.041 90.624 17.859 123.348 49.493 32.727 31.635 51.115 74.486 51.2 119.238z" />
<glyph unicode="&#xea76;" glyph-name="cross" d="M911.487 821.802c-12.5 12.502-29.396 19.499-47.062 19.499-17.662 0-34.601-6.997-47.062-19.499l-305.279-305.109-305.237 305.109c-12.501 12.502-29.397 19.499-47.061 19.499s-34.603-6.997-47.061-19.499c-12.501-12.501-19.499-29.397-19.499-47.061s6.997-34.602 19.499-47.061l305.067-305.279-305.237-305.279c-12.501-12.503-19.498-29.399-19.498-47.062 0-17.666 6.997-34.604 19.498-47.062 12.502-12.461 29.398-19.498 47.062-19.498s34.602 6.995 47.061 19.498l305.238 305.279 305.237-305.279c12.5-12.503 29.396-19.498 47.062-19.498 17.662 0 34.558 6.995 47.062 19.498 12.5 12.5 19.498 29.396 19.498 47.062 0 17.662-6.999 34.601-19.498 47.062l-305.237 305.279 305.237 305.279c12.5 12.459 19.541 29.355 19.583 47.019s-6.956 34.603-19.414 47.104h0.042z" />
<glyph unicode="&#xea77;" glyph-name="cross-file" d="M616.489 347.911l-58.283-60.505 58.283-60.464c3.031-3.133 5.461-6.888 7.083-10.97 1.621-4.086 2.475-8.496 2.475-12.95s-0.853-8.827-2.475-12.954c-1.621-4.123-4.052-7.834-7.083-10.97-3.028-3.133-6.612-5.649-10.581-7.342-3.966-1.69-8.192-2.598-12.5-2.598-4.311 0-8.533 0.867-12.503 2.598-3.966 1.734-7.55 4.209-10.581 7.342l-58.283 60.631-58.453-60.508c-6.144-6.349-14.421-9.899-23.081-9.899-8.663 0-16.981 3.55-23.084 9.899-6.144 6.352-9.557 14.974-9.557 23.924s3.458 17.568 9.557 23.921l58.453 60.341-58.283 60.505c-3.028 3.137-5.461 6.888-7.083 10.97-1.621 4.086-2.475 8.499-2.475 12.954s0.853 8.823 2.475 12.95c1.621 4.123 4.055 7.837 7.083 10.97 3.031 3.133 6.656 5.649 10.581 7.342 3.925 1.69 8.192 2.557 12.503 2.557 4.308 0 8.533-0.867 12.5-2.557 3.97-1.693 7.554-4.209 10.581-7.342l58.283-60.631 58.453 60.508c3.031 3.133 6.656 5.649 10.626 7.342 3.966 1.69 8.192 2.598 12.5 2.598 4.311 0 8.533-0.867 12.503-2.598 3.966-1.734 7.55-4.209 10.581-7.342 3.028-3.137 5.461-6.888 7.083-10.97 1.621-4.127 2.475-8.499 2.475-12.954s-0.853-8.823-2.475-12.95c-1.666-4.123-4.055-7.837-7.083-10.97l-0.13 0.123h-0.085zM837.803 473.542v-287.307c-0.044-44.752-17.237-87.644-47.787-119.279s-71.98-49.411-115.159-49.493h-325.803c-43.177 0.041-84.607 17.859-115.113 49.493s-47.701 74.486-47.787 119.238v472.453c0.043 44.709 17.237 87.603 47.787 119.238s71.936 49.411 115.113 49.493h147.115c29.952 0.083 59.648-5.981 87.34-17.859 27.689-11.878 52.821-29.325 73.94-51.308l113.538-117.794c21.248-21.859 38.1-47.885 49.579-76.589 11.476-28.706 17.323-59.395 17.237-90.45v0.164zM611.499 710.451c-10.24 10.27-21.76 19.137-34.219 26.314v-145.675c0-8.95 3.454-17.53 9.557-23.882 6.1-6.352 14.421-9.899 23.040-9.899h140.629c-6.956 12.909-15.49 24.83-25.474 35.43l-113.534 117.712zM772.779 473.542c0 5.567-1.024 11.052-1.536 16.374h-161.536c-25.9 0-50.773 10.643-69.12 29.655s-28.631 44.708-28.631 71.56v167.164c-5.246 0.495-10.452 1.567-15.828 1.567h-147.074c-25.94 0-50.772-10.682-69.119-29.655s-28.629-44.75-28.629-71.6v-472.457c0-26.849 10.283-52.586 28.629-71.598 18.347-19.016 43.179-29.655 69.119-29.655h325.847c25.941 0 50.773 10.68 69.12 29.655 18.347 18.971 28.628 44.749 28.628 71.598l0.13 287.351v0.041z" />
<glyph unicode="&#xea78;" glyph-name="cross-small" d="M899.584 795.208c-15.36 14.807-36.181 23.138-57.856 23.138s-42.496-8.332-57.856-23.138l-269.397-260.417-269.396 260.417c-15.573 13.652-36.011 20.993-57.003 20.498s-41.045-8.785-55.893-23.179c-14.848-14.394-23.467-33.738-23.979-54.030-0.512-20.334 7.083-40.048 21.205-55.102l269.398-260.417-269.398-260.417c-8.235-7.219-14.848-15.961-19.456-25.696s-7.125-20.292-7.424-31.017c-0.299-10.721 1.707-21.405 5.845-31.345s10.283-19.016 18.133-26.604c7.851-7.588 17.195-13.568 27.52-17.527 10.325-4 21.333-5.898 32.427-5.652 11.093 0.249 22.016 2.724 32.085 7.178s19.115 10.889 26.581 18.807l269.398 260.417 269.397-260.417c15.572-13.653 36.011-20.995 57.003-20.5s41.045 8.786 55.893 23.18c14.848 14.394 23.467 33.737 23.979 54.030 0.512 20.333-7.083 40.049-21.207 55.105l-269.397 260.417 269.397 260.417c15.319 14.848 23.938 34.975 23.938 55.927s-8.619 41.079-23.938 55.927z" />
<glyph unicode="&#xea79;" glyph-name="directory" d="M285.098 247.443c28.928 0 52.352 23.508 52.352 52.504 0 28.993-23.424 52.504-52.352 52.504s-52.352-23.511-52.352-52.504c0-28.996 23.424-52.504 52.352-52.504zM756.35 737.343h-488.747c-22.997 0.206-45.781-4.166-67.072-12.868s-40.619-21.612-56.875-37.862c-16.256-16.291-29.099-35.677-37.803-57s-13.056-44.173-12.843-67.229v-279.924c-0.213-23.057 4.139-45.906 12.8-67.229s21.547-40.711 37.803-56.999c16.256-16.292 35.584-29.16 56.875-37.905s44.075-13.073 67.072-12.868h488.745c22.999-0.205 45.783 4.164 67.075 12.868 21.289 8.704 40.619 21.613 56.873 37.905 16.258 16.288 29.099 35.676 37.803 56.999s13.056 44.172 12.844 67.229v279.965c0.212 23.056-4.14 45.906-12.844 67.229s-21.545 40.708-37.803 57c-16.254 16.291-35.584 29.16-56.873 37.862-21.292 8.703-44.076 13.074-67.075 12.868l0.044-0.041zM267.646 667.393h488.748c13.824 0.247 27.559-2.269 40.359-7.465 12.803-5.197 24.491-12.91 34.263-22.726s17.493-21.489 22.654-34.316c5.164-12.827 7.724-26.602 7.424-40.461h-698.196c-0.256 13.859 2.261 27.634 7.424 40.461s12.885 24.541 22.656 34.316c9.771 9.816 21.419 17.529 34.261 22.726s26.539 7.713 40.363 7.465h0.043zM756.35 177.408h-488.747c-13.824-0.246-27.563 2.27-40.363 7.465-12.8 5.199-24.491 12.909-34.261 22.726s-17.493 21.49-22.656 34.318c-5.163 12.827-7.723 26.6-7.424 40.458v209.978h698.196v-209.978c0.256-13.858-2.26-27.631-7.424-40.458-5.161-12.827-12.882-24.542-22.654-34.318-9.772-9.817-21.419-17.527-34.263-22.726-12.841-5.195-26.535-7.711-40.359-7.465h-0.044z" />
<glyph unicode="&#xea7a;" glyph-name="dollar" d="M563.371 691.23c21.634-0.041 42.37-10.93 57.685-30.356 15.319-19.426 23.893-45.699 23.938-73.168 0.212-8.744 3.113-17.035 8.107-23.138 4.99-6.103 11.605-9.486 18.517-9.486s13.524 3.424 18.517 9.486c4.99 6.062 7.851 14.394 8.107 23.138v4.166c-0.898 44.626-15.49 87.026-40.663 118.206s-58.965 48.627-94.164 48.668h-24.791v33.697c0.13 4.537-0.468 9.033-1.748 13.24s-3.202 8.084-5.717 11.342c-2.475 3.258-5.461 5.857-8.748 7.589-3.284 1.732-6.827 2.681-10.366 2.681-3.584 0-7.083-0.907-10.37-2.681-3.284-1.774-6.27-4.372-8.745-7.589s-4.437-7.094-5.717-11.342c-1.28-4.207-1.877-8.744-1.751-13.24v-33.738h-24.788c-32-0.041-62.891-14.559-87.255-40.873-24.361-26.314-40.532-62.733-45.652-102.781s1.152-81.087 17.707-115.814c16.555-34.727 42.281-60.836 72.619-73.704l67.369-28.542v-245.651h-24.788c-21.634 0.041-42.37 10.929-57.685 30.355-15.319 19.429-23.893 45.701-23.938 73.168-0.212 8.745-3.113 17.036-8.107 23.139-4.99 6.103-11.605 9.486-18.517 9.486s-13.524-3.424-18.516-9.486c-4.949-6.103-7.851-14.394-8.107-23.139v-4.164c0.896-44.626 15.488-87.026 40.662-118.207s58.965-48.626 94.164-48.667h24.791v-33.741c0.212-8.742 3.113-17.033 8.107-23.136 4.99-6.106 11.605-9.486 18.517-9.486s13.524 3.424 18.517 9.486c4.99 6.062 7.851 14.394 8.107 23.136v33.741h24.788c32 0.082 62.891 14.558 87.255 40.871 24.361 26.313 40.533 62.734 45.653 102.823 5.12 40.049-1.154 81.087-17.708 115.814s-42.281 60.836-72.619 73.704l-67.369 28.542v245.65h24.702zM589.186 353.109c18.388-7.755 34.048-23.552 44.073-44.585 10.028-21.036 13.868-45.947 10.752-70.24-3.113-24.293-12.926-46.36-27.689-62.321s-33.536-24.665-52.951-24.624h-24.788v223.174l50.603-21.405zM485.376 468.098l-50.517 21.405c-18.388 7.755-34.048 23.552-44.073 44.585-10.028 21.036-13.868 45.907-10.796 70.199 3.116 24.293 12.93 46.359 27.692 62.321s33.536 24.664 52.907 24.664h24.788v-223.174z" />
<glyph unicode="&#xea7b;" glyph-name="download" d="M896 287.037c-9.257 0-18.132-3.55-24.702-9.858-6.571-6.311-10.24-14.889-10.24-23.842v-134.786c0-4.413-0.898-8.827-2.645-12.909-1.751-4.082-4.311-7.796-7.554-10.929s-7.083-5.608-11.349-7.301c-4.267-1.69-8.789-2.557-13.353-2.557h-628.31c-9.259 0-18.133 3.546-24.704 9.858s-10.24 14.889-10.24 23.839v134.83c0 8.95-3.669 17.527-10.24 23.839-6.571 6.308-15.445 9.858-24.704 9.858s-18.133-3.55-24.661-9.899c-6.528-6.352-10.197-14.889-10.197-23.842v-134.827c0-26.808 11.051-52.545 30.677-71.475 19.627-18.934 46.293-29.614 74.069-29.614h628.351c27.778 0 54.402 10.639 74.069 29.614 19.671 18.971 30.679 44.667 30.679 71.475v134.827c0 8.953-3.714 17.49-10.24 23.801-6.53 6.308-15.445 9.854-24.706 9.854v0.044zM277.845 370.019l159.956-154.419c19.671-18.889 46.295-29.532 74.069-29.532 27.778 0 54.402 10.602 74.069 29.532l159.959 154.419c6.571 6.352 10.24 14.93 10.24 23.88s-3.669 17.572-10.24 23.88c-6.571 6.352-15.49 9.899-24.747 9.899-9.26 0-18.176-3.546-24.747-9.899l-149.845-144.643v519.351c0.171 4.537-0.642 9.032-2.304 13.239-1.666 4.207-4.226 8.084-7.468 11.301-3.243 3.258-7.168 5.815-11.476 7.589-4.311 1.774-8.96 2.681-13.612 2.681-4.693 0-9.301-0.907-13.653-2.681s-8.192-4.33-11.476-7.589c-3.243-3.258-5.803-7.094-7.509-11.301s-2.475-8.702-2.304-13.239v-519.514l-149.461 144.643c-6.571 6.352-15.488 9.899-24.747 9.899s-18.176-3.546-24.747-9.899c-6.571-6.352-10.24-14.93-10.24-23.88 0-4.454 0.896-8.827 2.645-12.95 1.749-4.127 4.352-7.837 7.595-10.974l0.171 0.167-0.128 0.041z" />
<glyph unicode="&#xea7c;" glyph-name="eye" d="M949.033 545.492c-60.247 93.1-196.951 249.259-436.863 249.259-239.915 0-377.089-156.16-437.206-249.259-18.56-28.587-28.416-61.525-28.416-95.105 0-33.577 9.856-66.514 28.416-95.101 60.117-93.099 196.949-249.344 437.033-249.344 240.086 0 376.92 156.16 437.036 249.344 18.559 28.587 28.418 61.525 28.418 95.101 0 33.58-9.859 66.518-28.418 95.105zM882.942 393.897c-51.67-79.83-168.533-214.143-370.946-214.143-202.409 0-319.273 134.271-370.942 214.143-11.051 16.981-16.896 36.567-16.896 56.535s5.845 39.551 16.896 56.532c51.669 79.744 168.576 214.101 371.115 214.101 202.537 0 319.103-134.101 370.773-214.143 11.052-16.981 16.896-36.567 16.896-56.489 0-19.926-5.844-39.512-16.896-56.493v-0.042zM512.169 634.668c-38.358 0.043-75.861-10.752-107.732-30.976s-56.79-48.98-71.467-82.645c-14.72-33.665-18.56-70.698-11.136-106.454s25.899-68.608 52.992-94.377c27.094-25.773 61.609-43.393 99.243-50.519 37.588-7.126 76.585-3.542 112.043 10.409 35.455 13.955 65.748 37.507 87.082 67.799 21.331 30.293 32.726 65.921 32.768 102.358 0.042 24.191-4.993 48.17-14.679 70.525-9.686 22.359-23.979 42.711-41.984 59.819-18.005 17.11-39.339 30.721-62.849 40.023s-48.725 14.080-74.198 14.080l-0.085-0.043zM512.169 339.799c-23.040-0.042-45.526 6.444-64.681 18.559-19.156 12.119-34.092 29.399-42.923 49.622-8.831 20.226-11.137 42.454-6.656 63.915s15.575 41.172 31.829 56.663c16.257 15.487 37.037 25.981 59.607 30.25 22.57 4.265 45.995 2.048 67.241-6.317 21.25-8.361 39.424-22.57 52.182-40.787 12.758-18.22 19.583-39.597 19.541-61.482-0.042-29.272-12.288-57.344-34.046-78.039-21.762-20.692-51.288-32.341-82.093-32.383z" />
<glyph unicode="&#xea7d;" glyph-name="eye-closed" d="M948.992 534.627c-34.987 51.39-79.189 97.295-130.731 135.858l108.544 97.337c7.298 6.558 11.394 15.426 11.394 24.664s-4.096 18.106-11.394 24.664c-7.294 6.558-17.193 10.228-27.518 10.228s-20.224-3.671-27.522-10.228l-118.057-105.998c-73.090 38.852-156.672 59.103-241.664 58.567-240.086 0-376.918-147.284-437.078-235.174-18.56-26.976-28.416-58.033-28.416-89.709s9.856-62.73 28.416-89.706c35.029-51.391 79.189-97.297 130.731-135.857l-108.757-97.256c-3.627-3.26-6.485-7.093-8.448-11.302-1.963-4.205-2.944-8.786-2.944-13.363s1.024-9.114 2.944-13.363c1.963-4.246 4.821-8.083 8.448-11.302 3.627-3.215 7.893-5.813 12.629-7.547 4.736-1.772 9.771-2.639 14.891-2.639s10.155 0.908 14.891 2.639c4.736 1.734 9.003 4.332 12.629 7.547l118.485 106.206c73.087-38.936 156.588-59.269 241.621-58.815 240.087 0 376.917 147.285 437.077 235.175 18.517 26.976 28.331 58.033 28.29 89.709-0.044 31.676-9.899 62.73-28.501 89.665h0.041zM140.843 391.632c-11.051 16.002-16.896 34.478-16.896 53.33 0 18.848 5.845 37.284 16.896 53.327 51.755 75.23 168.704 201.934 371.201 201.934 64.382 0.33 127.87-13.611 184.832-40.502l-78.21-69.95c-37.246 22.189-81.876 32.129-126.334 28.129s-86.060-21.612-117.634-49.947c-31.573-28.334-51.285-65.577-55.722-105.462s6.656-79.889 31.402-113.258l-89.599-80.261c-47.531 34.441-88.064 75.93-119.851 122.703l-0.085-0.041zM628.224 444.754c-0.041-27.593-12.288-54.071-34.089-73.581-21.804-19.507-51.285-30.519-82.091-30.56-17.282 0.041-34.304 3.628-49.794 10.435l154.327 138.54c7.636-13.94 11.605-29.283 11.646-44.834zM395.479 444.754c-0.044 13.735 2.987 27.303 8.83 40.008 5.847 12.704 14.421 24.211 25.259 33.901 10.837 9.694 23.682 17.408 37.847 22.644 14.165 5.239 29.31 7.919 44.629 7.878 17.278-0.041 34.304-3.628 49.79-10.435l-154.665-138.499c-7.554 13.858-11.564 29.078-11.65 44.503h-0.041zM882.859 391.632c-51.712-75.353-168.66-202.015-370.814-202.015-64.386-0.331-127.874 13.609-184.833 40.499l78.081 69.994c37.246-22.149 81.876-32.089 126.334-28.129s86.060 21.613 117.634 49.947c31.614 28.334 51.285 65.577 55.723 105.462s-6.656 79.889-31.403 113.258l89.6 80.303c47.445-34.439 87.893-75.971 119.593-122.703 11.052-16.002 16.896-34.478 16.896-53.33 0-18.848-5.844-37.284-16.896-53.327v0.041h0.085z" />
<glyph unicode="&#xea7e;" glyph-name="file" d="M770.987 648.021l-113.538 121.856c-21.163 22.741-46.292 40.747-73.984 52.992-27.689 12.245-57.344 18.517-87.296 18.389h-147.070c-43.179-0.043-84.608-18.432-115.158-51.157s-47.744-77.099-47.787-123.349v-488.747c0.043-46.295 17.237-90.624 47.787-123.351 30.549-32.724 71.936-51.115 115.158-51.156h325.803c43.179 0.041 84.565 18.473 115.115 51.2 30.549 32.724 47.701 77.056 47.787 123.348v297.26c0.085 32.085-5.762 63.915-17.237 93.566-11.479 29.655-28.331 56.578-49.579 79.234v-0.085zM724.777 598.528c9.943-10.967 18.517-23.296 25.474-36.652h-140.503c-8.66 0-16.937 3.669-23.040 10.24-6.1 6.571-9.557 15.445-9.557 24.705v150.827c12.459-7.424 23.979-16.597 34.219-27.221l113.408-121.899zM772.523 177.876c0-27.774-10.284-54.398-28.631-74.069-18.347-19.668-43.179-30.676-69.12-30.676h-325.673c-25.942 0-50.774 11.049-69.12 30.676s-28.629 46.295-28.629 74.069v488.919c0 27.776 10.283 54.4 28.629 74.069s43.179 30.677 69.12 30.677h147.115c5.332 0 10.667-1.11 15.828-1.621v-172.885c0-27.776 10.284-54.4 28.631-74.071 18.347-19.668 43.179-30.676 69.12-30.676h161.365c0.512-5.632 1.536-11.179 1.536-16.94l-0.13-297.428-0.041-0.044z" />
<glyph unicode="&#xea7f;" glyph-name="file2" d="M663.255 352.597c0-4.608-0.894-9.131-2.645-13.356-1.748-4.222-4.308-8.062-7.55-11.349-3.243-3.243-7.083-5.803-11.349-7.55-4.267-1.751-8.789-2.645-13.356-2.645h-279.252c-4.693-0.171-9.345 0.642-13.697 2.304s-8.363 4.222-11.733 7.465c-3.371 3.243-6.059 7.168-7.851 11.479-1.792 4.308-2.773 8.96-2.773 13.653s0.939 9.301 2.773 13.609c1.835 4.311 4.523 8.192 7.851 11.479 3.371 3.243 7.339 5.803 11.733 7.465 4.395 1.666 9.045 2.475 13.697 2.304h279.252c9.26 0 18.135-3.666 24.661-10.196 6.53-6.53 10.24-15.404 10.24-24.661zM523.609 247.849h-174.551c-4.693 0.174-9.344-0.638-13.696-2.304-4.352-1.662-8.363-4.222-11.733-7.506-3.371-3.243-6.059-7.168-7.851-11.479s-2.773-8.96-2.773-13.612c0-4.649 0.939-9.301 2.773-13.609 1.835-4.311 4.523-8.192 7.851-11.479 3.328-3.284 7.339-5.803 11.733-7.509 4.352-1.662 9.047-2.471 13.696-2.301h174.551c9.045 0.297 17.664 4.093 23.934 10.622 6.274 6.526 9.813 15.23 9.813 24.276s-3.54 17.794-9.813 24.279c-6.27 6.485-14.889 10.325-23.934 10.622zM837.762 475.307v-297.216c-0.041-46.295-18.473-90.624-51.156-123.351-32.683-32.724-77.1-51.156-123.351-51.2h-349.056c-46.251 0.044-90.624 18.476-123.349 51.2-32.725 32.727-51.115 77.056-51.2 123.351v488.747c0.043 46.251 18.475 90.624 51.2 123.349s77.056 51.115 123.349 51.2h157.612c32.085 0.085 63.915-6.187 93.566-18.475 29.655-12.288 56.576-30.336 79.234-53.077l121.641-121.856c22.784-22.613 40.834-49.536 53.122-79.232s18.558-61.44 18.473-93.566l-0.041 0.171-0.044-0.044zM595.33 720.384c-10.964 10.624-23.296 19.797-36.693 27.221v-150.699c0-9.26 3.669-18.135 10.24-24.706s15.445-10.24 24.706-10.24h150.654c-7.424 13.356-16.596 25.685-27.262 36.652l-121.644 121.771zM768.13 475.307c0 5.758-1.109 11.435-1.621 16.937h-173.056c-27.774 0-54.398 11.008-74.025 30.679-19.627 19.668-30.679 46.251-30.679 74.027v172.928c-5.632 0.512-11.179 1.621-16.937 1.621h-157.569c-27.776 0-54.4-11.051-74.069-30.677s-30.677-46.293-30.677-74.069v-488.747c0-27.778 11.051-54.402 30.677-74.069 19.627-19.671 46.293-30.679 74.069-30.679h349.098c27.778 0 54.402 11.052 74.069 30.679 19.671 19.627 30.679 46.292 30.679 74.069l0.126 297.257-0.085 0.044z" />
</font>
</defs>
</svg>
